v 0.191281 0.026194 -0.311904
v 0.151697 0.026194 -0.232040
v -0.097261 0.026194 -0.232040
v -0.177469 0.026194 -0.261989
v -0.174843 0.026194 -0.268436
v -0.171827 0.026194 -0.274467
v -0.168420 0.026194 -0.280083
v -0.164622 0.026194 -0.285282
v -0.160434 0.026194 -0.290066
v -0.155855 0.026194 -0.294433
v -0.150885 0.026194 -0.298385
v -0.145525 0.026194 -0.301921
v -0.139774 0.026194 -0.305040
v -0.133632 0.026194 -0.307744
v -0.127100 0.026194 -0.310032
v -0.120178 0.026194 -0.311904
v -0.180594 0.026194 -0.242023
v -0.100386 0.026194 -0.212074
v -0.120178 0.026194 -0.022398
v -0.188928 0.026194 0.037500
v -0.207678 0.026194 0.017534
v 0.206906 0.026194 0.037500
v 0.150656 0.026194 -0.022398
v 0.172531 0.026194 -0.232040
v 0.212114 0.026194 -0.311904
v 0.218646 0.026194 -0.310032
v 0.224701 0.026194 -0.307744
v 0.230278 0.026194 -0.305040
v 0.235378 0.026194 -0.301921
v 0.240000 0.026194 -0.298385
v 0.244145 0.026194 -0.294433
v 0.247813 0.026194 -0.290066
v 0.251003 0.026194 -0.285282
v 0.253716 0.026194 -0.280083
v 0.255951 0.026194 -0.274467
v 0.257709 0.026194 -0.268436
v 0.258989 0.026194 -0.261989
v 0.229822 0.026194 0.017534
v 0.136072 0.026194 0.117364
v 0.204822 0.026194 0.057466
v 0.223572 0.026194 0.077432
v 0.194406 0.026194 0.356955
v 0.191780 0.026194 0.363402
v 0.188763 0.026194 0.369434
v 0.185356 0.026194 0.375049
v 0.181558 0.026194 0.380249
v 0.177370 0.026194 0.385032
v 0.172791 0.026194 0.389400
v 0.167821 0.026194 0.393351
v 0.162461 0.026194 0.396887
v 0.156710 0.026194 0.400007
v 0.150569 0.026194 0.402710
v 0.144037 0.026194 0.404998
v 0.137114 0.026194 0.406870
v 0.114197 0.026194 0.327006
v 0.093364 0.026194 0.327006
v 0.116281 0.026194 0.406870
v -0.196219 0.026194 0.406870
v -0.202751 0.026194 0.404998
v -0.208806 0.026194 0.402710
v -0.214383 0.026194 0.400007
v -0.219483 0.026194 0.396887
v -0.224106 0.026194 0.393351
v -0.228251 0.026194 0.389400
v -0.231918 0.026194 0.385032
v -0.235108 0.026194 0.380249
v -0.237821 0.026194 0.375049
v -0.240056 0.026194 0.369434
v -0.241814 0.026194 0.363402
v -0.243094 0.026194 0.356955
v -0.156636 0.026194 0.327006
v -0.154553 0.026194 0.307040
v -0.241011 0.026194 0.336989
v -0.213928 0.026194 0.077432
v -0.191011 0.026194 0.057466
v -0.134761 0.026194 0.117364
v 0.191281 -0.015806 -0.311904
v 0.151697 -0.015806 -0.232040
v -0.097261 -0.015806 -0.232040
v -0.177469 -0.015806 -0.261989
v -0.174843 -0.015806 -0.268436
v -0.171827 -0.015806 -0.274467
v -0.168420 -0.015806 -0.280083
v -0.164622 -0.015806 -0.285282
v -0.160434 -0.015806 -0.290066
v -0.155855 -0.015806 -0.294433
v -0.150885 -0.015806 -0.298385
v -0.145525 -0.015806 -0.301921
v -0.139774 -0.015806 -0.305040
v -0.133632 -0.015806 -0.307744
v -0.127100 -0.015806 -0.310032
v -0.120178 -0.015806 -0.311904
v -0.180594 -0.015806 -0.242023
v -0.100386 -0.015806 -0.212074
v -0.120178 -0.015806 -0.022398
v -0.188928 -0.015806 0.037500
v -0.207678 -0.015806 0.017534
v 0.206906 -0.015806 0.037500
v 0.150656 -0.015806 -0.022398
v 0.172531 -0.015806 -0.232040
v 0.212114 -0.015806 -0.311904
v 0.218646 -0.015806 -0.310032
v 0.224701 -0.015806 -0.307744
v 0.230278 -0.015806 -0.305040
v 0.235378 -0.015806 -0.301921
v 0.240000 -0.015806 -0.298385
v 0.244145 -0.015806 -0.294433
v 0.247813 -0.015806 -0.290066
v 0.251003 -0.015806 -0.285282
v 0.253716 -0.015806 -0.280083
v 0.255951 -0.015806 -0.274467
v 0.257709 -0.015806 -0.268436
v 0.258989 -0.015806 -0.261989
v 0.229822 -0.015806 0.017534
v 0.136072 -0.015806 0.117364
v 0.204822 -0.015806 0.057466
v 0.223572 -0.015806 0.077432
v 0.194406 -0.015806 0.356955
v 0.191780 -0.015806 0.363402
v 0.188763 -0.015806 0.369434
v 0.185356 -0.015806 0.375049
v 0.181558 -0.015806 0.380249
v 0.177370 -0.015806 0.385032
v 0.172791 -0.015806 0.389400
v 0.167821 -0.015806 0.393351
v 0.162461 -0.015806 0.396887
v 0.156710 -0.015806 0.400007
v 0.150569 -0.015806 0.402710
v 0.144037 -0.015806 0.404998
v 0.137114 -0.015806 0.406870
v 0.114197 -0.015806 0.327006
v 0.093364 -0.015806 0.327006
v 0.116281 -0.015806 0.406870
v -0.196219 -0.015806 0.406870
v -0.202751 -0.015806 0.404998
v -0.208806 -0.015806 0.402710
v -0.214383 -0.015806 0.400007
v -0.219483 -0.015806 0.396887
v -0.224106 -0.015806 0.393351
v -0.228251 -0.015806 0.389400
v -0.231918 -0.015806 0.385032
v -0.235108 -0.015806 0.380249
v -0.237821 -0.015806 0.375049
v -0.240056 -0.015806 0.369434
v -0.241814 -0.015806 0.363402
v -0.243094 -0.015806 0.356955
v -0.156636 -0.015806 0.327006
v -0.154553 -0.015806 0.307040
v -0.241011 -0.015806 0.336989
v -0.213928 -0.015806 0.077432
v -0.191011 -0.015806 0.057466
v -0.134761 -0.015806 0.117364
v 0.136072 -0.015806 0.117364
v 0.136072 0.026194 0.117364
v 0.204822 -0.015806 0.057466
v 0.204822 0.026194 0.057466
v 0.223572 -0.015806 0.077432
v 0.223572 0.026194 0.077432
v 0.194406 -0.015806 0.356955
v 0.194406 0.026194 0.356955
v 0.191780 -0.015806 0.363402
v 0.191780 0.026194 0.363402
v 0.188763 -0.015806 0.369434
v 0.188763 0.026194 0.369434
v 0.185356 -0.015806 0.375049
v 0.185356 0.026194 0.375049
v 0.181558 -0.015806 0.380249
v 0.181558 0.026194 0.380249
v 0.177370 -0.015806 0.385032
v 0.177370 0.026194 0.385032
v 0.172791 -0.015806 0.389400
v 0.172791 0.026194 0.389400
v 0.167821 -0.015806 0.393351
v 0.167821 0.026194 0.393351
v 0.162461 -0.015806 0.396887
v 0.162461 0.026194 0.396887
v 0.156710 -0.015806 0.400007
v 0.156710 0.026194 0.400007
v 0.150569 -0.015806 0.402710
v 0.150569 0.026194 0.402710
v 0.144037 -0.015806 0.404998
v 0.144037 0.026194 0.404998
v 0.137114 -0.015806 0.406870
v 0.137114 0.026194 0.406870
v 0.114197 -0.015806 0.327006
v 0.114197 0.026194 0.327006
v 0.093364 -0.015806 0.327006
v 0.093364 0.026194 0.327006
v 0.116281 -0.015806 0.406870
v 0.116281 0.026194 0.406870
v -0.196219 -0.015806 0.406870
v -0.196219 0.026194 0.406870
v -0.202751 -0.015806 0.404998
v -0.202751 0.026194 0.404998
v -0.208806 -0.015806 0.402710
v -0.208806 0.026194 0.402710
v -0.214383 -0.015806 0.400007
v -0.214383 0.026194 0.400007
v -0.219483 -0.015806 0.396887
v -0.219483 0.026194 0.396887
v -0.224106 -0.015806 0.393351
v -0.224106 0.026194 0.393351
v -0.228251 -0.015806 0.389400
v -0.228251 0.026194 0.389400
v -0.231918 -0.015806 0.385032
v -0.231918 0.026194 0.385032
v -0.235108 -0.015806 0.380249
v -0.235108 0.026194 0.380249
v -0.237821 -0.015806 0.375049
v -0.237821 0.026194 0.375049
v -0.240056 -0.015806 0.369434
v -0.240056 0.026194 0.369434
v -0.241814 -0.015806 0.363402
v -0.241814 0.026194 0.363402
v -0.243094 -0.015806 0.356955
v -0.243094 0.026194 0.356955
v -0.156636 -0.015806 0.327006
v -0.156636 0.026194 0.327006
v -0.154553 -0.015806 0.307040
v -0.154553 0.026194 0.307040
v -0.241011 -0.015806 0.336989
v -0.241011 0.026194 0.336989
v -0.213928 -0.015806 0.077432
v -0.213928 0.026194 0.077432
v -0.191011 -0.015806 0.057466
v -0.191011 0.026194 0.057466
v -0.134761 -0.015806 0.117364
v -0.134761 0.026194 0.117364
v 0.191281 -0.015806 -0.311904
v 0.191281 0.026194 -0.311904
v 0.151697 -0.015806 -0.232040
v 0.151697 0.026194 -0.232040
v -0.097261 -0.015806 -0.232040
v -0.097261 0.026194 -0.232040
v -0.177469 -0.015806 -0.261989
v -0.177469 0.026194 -0.261989
v -0.174843 -0.015806 -0.268436
v -0.174843 0.026194 -0.268436
v -0.171827 -0.015806 -0.274467
v -0.171827 0.026194 -0.274467
v -0.168420 -0.015806 -0.280083
v -0.168420 0.026194 -0.280083
v -0.164622 -0.015806 -0.285282
v -0.164622 0.026194 -0.285282
v -0.160434 -0.015806 -0.290066
v -0.160434 0.026194 -0.290066
v -0.155855 -0.015806 -0.294433
v -0.155855 0.026194 -0.294433
v -0.150885 -0.015806 -0.298385
v -0.150885 0.026194 -0.298385
v -0.145525 -0.015806 -0.301921
v -0.145525 0.026194 -0.301921
v -0.139774 -0.015806 -0.305040
v -0.139774 0.026194 -0.305040
v -0.133632 -0.015806 -0.307744
v -0.133632 0.026194 -0.307744
v -0.127100 -0.015806 -0.310032
v -0.127100 0.026194 -0.310032
v -0.120178 -0.015806 -0.311904
v -0.120178 0.026194 -0.311904
v -0.180594 -0.015806 -0.242023
v -0.180594 0.026194 -0.242023
v -0.100386 -0.015806 -0.212074
v -0.100386 0.026194 -0.212074
v -0.120178 -0.015806 -0.022398
v -0.120178 0.026194 -0.022398
v -0.188928 -0.015806 0.037500
v -0.188928 0.026194 0.037500
v -0.207678 -0.015806 0.017534
v -0.207678 0.026194 0.017534
v 0.206906 -0.015806 0.037500
v 0.206906 0.026194 0.037500
v 0.150656 -0.015806 -0.022398
v 0.150656 0.026194 -0.022398
v 0.172531 -0.015806 -0.232040
v 0.172531 0.026194 -0.232040
v 0.212114 -0.015806 -0.311904
v 0.212114 0.026194 -0.311904
v 0.218646 -0.015806 -0.310032
v 0.218646 0.026194 -0.310032
v 0.224701 -0.015806 -0.307744
v 0.224701 0.026194 -0.307744
v 0.230278 -0.015806 -0.305040
v 0.230278 0.026194 -0.305040
v 0.235378 -0.015806 -0.301921
v 0.235378 0.026194 -0.301921
v 0.240000 -0.015806 -0.298385
v 0.240000 0.026194 -0.298385
v 0.244145 -0.015806 -0.294433
v 0.244145 0.026194 -0.294433
v 0.247813 -0.015806 -0.290066
v 0.247813 0.026194 -0.290066
v 0.251003 -0.015806 -0.285282
v 0.251003 0.026194 -0.285282
v 0.253716 -0.015806 -0.280083
v 0.253716 0.026194 -0.280083
v 0.255951 -0.015806 -0.274467
v 0.255951 0.026194 -0.274467
v 0.257709 -0.015806 -0.268436
v 0.257709 0.026194 -0.268436
v 0.258989 -0.015806 -0.261989
v 0.258989 0.026194 -0.261989
v 0.229822 -0.015806 0.017534
v 0.229822 0.026194 0.017534
vn 0.000000 1.000000 0.000000
vn 0.000000 -1.000000 0.000000
vn -0.887400 0.000000 -0.460900
vn 0.050000 0.000000 -0.998700
vn 0.947600 0.000000 -0.319300
vn 0.970000 0.000000 0.242900
vn 0.910900 0.000000 0.412600
vn 0.875400 0.000000 0.483400
vn 0.832000 0.000000 0.554800
vn 0.780700 0.000000 0.624900
vn 0.722000 0.000000 0.691900
vn 0.657000 0.000000 0.753900
vn 0.587100 0.000000 0.809500
vn 0.514200 0.000000 0.857700
vn 0.440200 0.000000 0.897900
vn 0.367000 0.000000 0.930200
vn 0.296000 0.000000 0.955200
vn -0.491400 0.000000 0.871000
vn -0.996200 0.000000 0.087600
vn 0.601700 0.000000 -0.798700
vn 0.798700 0.000000 0.601700
vn -0.139100 0.000000 0.990300
vn -0.314700 0.000000 0.949200
vn -0.395200 0.000000 0.918600
vn -0.479600 0.000000 0.877500
vn -0.565500 0.000000 0.824800
vn -0.649700 0.000000 0.760200
vn -0.729000 0.000000 0.684500
vn -0.800100 0.000000 0.599900
vn -0.860500 0.000000 0.509400
vn -0.909000 0.000000 0.416700
vn -0.945700 0.000000 0.325200
vn -0.971400 0.000000 0.237500
vn -0.867500 0.000000 -0.497400
vn -0.166000 0.000000 -0.986100
vn 0.783400 0.000000 0.621500
vn -0.621500 0.000000 0.783400
vn 0.849700 0.000000 -0.527200
vn 0.527200 0.000000 0.849700
vn -0.177700 0.000000 0.984100
vn -0.915800 0.000000 0.401700
vn -0.910900 0.000000 -0.412600
vn -0.875400 0.000000 -0.483400
vn -0.832000 0.000000 -0.554800
vn -0.780700 0.000000 -0.624900
vn -0.722000 0.000000 -0.691900
vn -0.657000 0.000000 -0.753900
vn -0.587100 0.000000 -0.809500
vn -0.514200 0.000000 -0.857700
vn -0.440300 0.000000 -0.897900
vn -0.367000 0.000000 -0.930200
vn -0.296000 0.000000 -0.955200
vn -0.131700 0.000000 -0.991300
vn -0.526700 0.000000 -0.850000
vn 0.850000 0.000000 -0.526700
vn 0.887400 0.000000 0.460900
vn -0.050000 0.000000 0.998700
vn -0.947600 0.000000 0.319300
vn -0.960500 0.000000 -0.278300
vn -0.403900 0.000000 -0.914800
vn 0.314700 0.000000 -0.949200
vn 0.395200 0.000000 -0.918600
vn 0.479600 0.000000 -0.877500
vn 0.565400 0.000000 -0.824800
vn 0.649700 0.000000 -0.760200
vn 0.729000 0.000000 -0.684500
vn 0.800100 0.000000 -0.599900
vn 0.860500 0.000000 -0.509400
vn 0.909000 0.000000 -0.416700
vn 0.945700 0.000000 -0.325200
vn 0.971400 0.000000 -0.237500
vn 0.998900 0.000000 -0.046000
f 74//1 76//1 75//1
f 39//1 41//1 40//1
f 73//1 76//1 74//1
f 39//1 42//1 41//1
f 73//1 72//1 76//1
f 55//1 42//1 39//1
f 70//1 56//1 71//1
f 70//1 57//1 56//1
f 54//1 42//1 55//1
f 69//1 57//1 70//1
f 54//1 43//1 42//1
f 54//1 44//1 43//1
f 68//1 57//1 69//1
f 54//1 45//1 44//1
f 67//1 57//1 68//1
f 54//1 46//1 45//1
f 66//1 57//1 67//1
f 65//1 57//1 66//1
f 54//1 47//1 46//1
f 64//1 57//1 65//1
f 54//1 48//1 47//1
f 63//1 57//1 64//1
f 54//1 49//1 48//1
f 62//1 57//1 63//1
f 54//1 50//1 49//1
f 61//1 57//1 62//1
f 54//1 51//1 50//1
f 60//1 57//1 61//1
f 54//1 52//1 51//1
f 59//1 57//1 60//1
f 54//1 53//1 52//1
f 58//1 57//1 59//1
f 15//1 1//1 16//1
f 15//1 2//1 1//1
f 24//1 26//1 25//1
f 14//1 2//1 15//1
f 24//1 27//1 26//1
f 13//1 2//1 14//1
f 24//1 28//1 27//1
f 12//1 2//1 13//1
f 24//1 29//1 28//1
f 11//1 2//1 12//1
f 24//1 30//1 29//1
f 10//1 2//1 11//1
f 24//1 31//1 30//1
f 9//1 2//1 10//1
f 24//1 32//1 31//1
f 8//1 2//1 9//1
f 24//1 33//1 32//1
f 7//1 2//1 8//1
f 24//1 34//1 33//1
f 6//1 2//1 7//1
f 24//1 35//1 34//1
f 5//1 2//1 6//1
f 24//1 36//1 35//1
f 4//1 2//1 5//1
f 24//1 37//1 36//1
f 3//1 2//1 4//1
f 24//1 38//1 37//1
f 21//1 18//1 17//1
f 23//1 38//1 24//1
f 21//1 19//1 18//1
f 21//1 20//1 19//1
f 22//1 38//1 23//1
f 152//2 150//2 151//2
f 117//2 115//2 116//2
f 152//2 149//2 150//2
f 118//2 115//2 117//2
f 148//2 149//2 152//2
f 118//2 131//2 115//2
f 132//2 146//2 147//2
f 133//2 146//2 132//2
f 118//2 130//2 131//2
f 133//2 145//2 146//2
f 119//2 130//2 118//2
f 120//2 130//2 119//2
f 133//2 144//2 145//2
f 121//2 130//2 120//2
f 133//2 143//2 144//2
f 122//2 130//2 121//2
f 133//2 142//2 143//2
f 133//2 141//2 142//2
f 123//2 130//2 122//2
f 133//2 140//2 141//2
f 124//2 130//2 123//2
f 133//2 139//2 140//2
f 125//2 130//2 124//2
f 133//2 138//2 139//2
f 126//2 130//2 125//2
f 133//2 137//2 138//2
f 127//2 130//2 126//2
f 133//2 136//2 137//2
f 128//2 130//2 127//2
f 133//2 135//2 136//2
f 129//2 130//2 128//2
f 133//2 134//2 135//2
f 77//2 91//2 92//2
f 78//2 91//2 77//2
f 102//2 100//2 101//2
f 78//2 90//2 91//2
f 103//2 100//2 102//2
f 78//2 89//2 90//2
f 104//2 100//2 103//2
f 78//2 88//2 89//2
f 105//2 100//2 104//2
f 78//2 87//2 88//2
f 106//2 100//2 105//2
f 78//2 86//2 87//2
f 107//2 100//2 106//2
f 78//2 85//2 86//2
f 108//2 100//2 107//2
f 78//2 84//2 85//2
f 109//2 100//2 108//2
f 78//2 83//2 84//2
f 110//2 100//2 109//2
f 78//2 82//2 83//2
f 111//2 100//2 110//2
f 78//2 81//2 82//2
f 112//2 100//2 111//2
f 78//2 80//2 81//2
f 113//2 100//2 112//2
f 78//2 79//2 80//2
f 114//2 100//2 113//2
f 94//2 97//2 93//2
f 114//2 99//2 100//2
f 95//2 97//2 94//2
f 96//2 97//2 95//2
f 114//2 98//2 99//2
f 154//3 156//4 155//4 153//3
f 156//4 158//5 157//5 155//4
f 158//5 160//6 159//6 157//5
f 160//6 162//7 161//7 159//6
f 162//7 164//8 163//8 161//7
f 164//8 166//9 165//9 163//8
f 166//9 168//10 167//10 165//9
f 168//10 170//11 169//11 167//10
f 170//11 172//12 171//12 169//11
f 172//12 174//13 173//13 171//12
f 174//13 176//14 175//14 173//13
f 176//14 178//15 177//15 175//14
f 178//15 180//16 179//16 177//15
f 180//16 182//17 181//17 179//16
f 182//17 184//18 183//18 181//17
f 184//18 186//19 185//19 183//18
f 186//19 154//3 153//3 185//19
f 188//20 190//21 189//21 187//20
f 190//21 192//22 191//22 189//21
f 192//22 194//23 193//23 191//22
f 194//23 196//24 195//24 193//23
f 196//24 198//25 197//25 195//24
f 198//25 200//26 199//26 197//25
f 200//26 202//27 201//27 199//26
f 202//27 204//28 203//28 201//27
f 204//28 206//29 205//29 203//28
f 206//29 208//30 207//30 205//29
f 208//30 210//31 209//31 207//30
f 210//31 212//32 211//32 209//31
f 212//32 214//33 213//33 211//32
f 214//33 216//34 215//34 213//33
f 216//34 218//35 217//35 215//34
f 218//35 188//20 187//20 217//35
f 220//36 222//37 221//37 219//36
f 222//37 224//3 223//3 221//37
f 224//3 226//4 225//4 223//3
f 226//4 228//5 227//5 225//4
f 228//5 220//36 219//36 227//5
f 230//38 232//39 231//39 229//38
f 232//39 234//40 233//40 231//39
f 234//40 236//41 235//41 233//40
f 236//41 238//42 237//42 235//41
f 238//42 240//43 239//43 237//42
f 240//43 242//44 241//44 239//43
f 242//44 244//45 243//45 241//44
f 244//45 246//46 245//46 243//45
f 246//46 248//47 247//47 245//46
f 248//47 250//48 249//48 247//47
f 250//48 252//49 251//49 249//48
f 252//49 254//50 253//50 251//49
f 254//50 256//51 255//51 253//50
f 256//51 258//52 257//52 255//51
f 258//52 260//53 259//53 257//52
f 260//53 230//38 229//38 259//53
f 262//54 264//55 263//55 261//54
f 264//55 266//56 265//56 263//55
f 266//56 268//57 267//57 265//56
f 268//57 270//58 269//58 267//57
f 270//58 262//54 261//54 269//58
f 272//57 274//58 273//58 271//57
f 274//58 276//59 275//59 273//58
f 276//59 278//60 277//60 275//59
f 278//60 280//61 279//61 277//60
f 280//61 282//62 281//62 279//61
f 282//62 284//63 283//63 281//62
f 284//63 286//64 285//64 283//63
f 286//64 288//65 287//65 285//64
f 288//65 290//66 289//66 287//65
f 290//66 292//67 291//67 289//66
f 292//67 294//68 293//68 291//67
f 294//68 296//69 295//69 293//68
f 296//69 298//70 297//70 295//69
f 298//70 300//71 299//71 297//70
f 300//71 302//72 301//72 299//71
f 302//72 304//56 303//56 301//72
f 304//56 272//57 271//57 303//56
