v -0.123303 0.026194 0.007551
v 0.147531 0.026194 0.007551
v 0.185031 0.026194 0.047483
v 0.139197 0.026194 0.087415
v -0.131636 0.026194 0.087415
v -0.169136 0.026194 0.047483
v 0.136072 0.026194 0.117364
v 0.204822 0.026194 0.057466
v 0.223572 0.026194 0.077432
v 0.194406 0.026194 0.356955
v 0.191780 0.026194 0.363402
v 0.188763 0.026194 0.369434
v 0.185356 0.026194 0.375049
v 0.181558 0.026194 0.380249
v 0.177370 0.026194 0.385032
v 0.172791 0.026194 0.389400
v 0.167821 0.026194 0.393351
v 0.162461 0.026194 0.396887
v 0.156710 0.026194 0.400007
v 0.150569 0.026194 0.402710
v 0.144037 0.026194 0.404998
v 0.137114 0.026194 0.406870
v 0.114197 0.026194 0.327006
v -0.177469 0.026194 -0.271972
v -0.097261 0.026194 -0.242023
v -0.120178 0.026194 -0.022398
v -0.188928 0.026194 0.037500
v -0.207678 0.026194 0.017534
v 0.206906 0.026194 0.037500
v 0.150656 0.026194 -0.022398
v 0.172531 0.026194 -0.232040
v 0.212114 0.026194 -0.311904
v 0.218646 0.026194 -0.310032
v 0.224701 0.026194 -0.307744
v 0.230278 0.026194 -0.305040
v 0.235378 0.026194 -0.301921
v 0.240000 0.026194 -0.298385
v 0.244145 0.026194 -0.294433
v 0.247813 0.026194 -0.290066
v 0.251003 0.026194 -0.285282
v 0.253716 0.026194 -0.280083
v 0.255951 0.026194 -0.274467
v 0.257709 0.026194 -0.268436
v 0.258989 0.026194 -0.261989
v 0.229822 0.026194 0.017534
v -0.123303 -0.015806 0.007551
v 0.147531 -0.015806 0.007551
v 0.185031 -0.015806 0.047483
v 0.139197 -0.015806 0.087415
v -0.131636 -0.015806 0.087415
v -0.169136 -0.015806 0.047483
v 0.136072 -0.015806 0.117364
v 0.204822 -0.015806 0.057466
v 0.223572 -0.015806 0.077432
v 0.194406 -0.015806 0.356955
v 0.191780 -0.015806 0.363402
v 0.188763 -0.015806 0.369434
v 0.185356 -0.015806 0.375049
v 0.181558 -0.015806 0.380249
v 0.177370 -0.015806 0.385032
v 0.172791 -0.015806 0.389400
v 0.167821 -0.015806 0.393351
v 0.162461 -0.015806 0.396887
v 0.156710 -0.015806 0.400007
v 0.150569 -0.015806 0.402710
v 0.144037 -0.015806 0.404998
v 0.137114 -0.015806 0.406870
v 0.114197 -0.015806 0.327006
v -0.177469 -0.015806 -0.271972
v -0.097261 -0.015806 -0.242023
v -0.120178 -0.015806 -0.022398
v -0.188928 -0.015806 0.037500
v -0.207678 -0.015806 0.017534
v 0.206906 -0.015806 0.037500
v 0.150656 -0.015806 -0.022398
v 0.172531 -0.015806 -0.232040
v 0.212114 -0.015806 -0.311904
v 0.218646 -0.015806 -0.310032
v 0.224701 -0.015806 -0.307744
v 0.230278 -0.015806 -0.305040
v 0.235378 -0.015806 -0.301921
v 0.240000 -0.015806 -0.298385
v 0.244145 -0.015806 -0.294433
v 0.247813 -0.015806 -0.290066
v 0.251003 -0.015806 -0.285282
v 0.253716 -0.015806 -0.280083
v 0.255951 -0.015806 -0.274467
v 0.257709 -0.015806 -0.268436
v 0.258989 -0.015806 -0.261989
v 0.229822 -0.015806 0.017534
v -0.123303 -0.015806 0.007551
v -0.123303 0.026194 0.007551
v 0.147531 -0.015806 0.007551
v 0.147531 0.026194 0.007551
v 0.185031 -0.015806 0.047483
v 0.185031 0.026194 0.047483
v 0.139197 -0.015806 0.087415
v 0.139197 0.026194 0.087415
v -0.131636 -0.015806 0.087415
v -0.131636 0.026194 0.087415
v -0.169136 -0.015806 0.047483
v -0.169136 0.026194 0.047483
v 0.136072 -0.015806 0.117364
v 0.136072 0.026194 0.117364
v 0.204822 -0.015806 0.057466
v 0.204822 0.026194 0.057466
v 0.223572 -0.015806 0.077432
v 0.223572 0.026194 0.077432
v 0.194406 -0.015806 0.356955
v 0.194406 0.026194 0.356955
v 0.191780 -0.015806 0.363402
v 0.191780 0.026194 0.363402
v 0.188763 -0.015806 0.369434
v 0.188763 0.026194 0.369434
v 0.185356 -0.015806 0.375049
v 0.185356 0.026194 0.375049
v 0.181558 -0.015806 0.380249
v 0.181558 0.026194 0.380249
v 0.177370 -0.015806 0.385032
v 0.177370 0.026194 0.385032
v 0.172791 -0.015806 0.389400
v 0.172791 0.026194 0.389400
v 0.167821 -0.015806 0.393351
v 0.167821 0.026194 0.393351
v 0.162461 -0.015806 0.396887
v 0.162461 0.026194 0.396887
v 0.156710 -0.015806 0.400007
v 0.156710 0.026194 0.400007
v 0.150569 -0.015806 0.402710
v 0.150569 0.026194 0.402710
v 0.144037 -0.015806 0.404998
v 0.144037 0.026194 0.404998
v 0.137114 -0.015806 0.406870
v 0.137114 0.026194 0.406870
v 0.114197 -0.015806 0.327006
v 0.114197 0.026194 0.327006
v -0.177469 -0.015806 -0.271972
v -0.177469 0.026194 -0.271972
v -0.097261 -0.015806 -0.242023
v -0.097261 0.026194 -0.242023
v -0.120178 -0.015806 -0.022398
v -0.120178 0.026194 -0.022398
v -0.188928 -0.015806 0.037500
v -0.188928 0.026194 0.037500
v -0.207678 -0.015806 0.017534
v -0.207678 0.026194 0.017534
v 0.206906 -0.015806 0.037500
v 0.206906 0.026194 0.037500
v 0.150656 -0.015806 -0.022398
v 0.150656 0.026194 -0.022398
v 0.172531 -0.015806 -0.232040
v 0.172531 0.026194 -0.232040
v 0.212114 -0.015806 -0.311904
v 0.212114 0.026194 -0.311904
v 0.218646 -0.015806 -0.310032
v 0.218646 0.026194 -0.310032
v 0.224701 -0.015806 -0.307744
v 0.224701 0.026194 -0.307744
v 0.230278 -0.015806 -0.305040
v 0.230278 0.026194 -0.305040
v 0.235378 -0.015806 -0.301921
v 0.235378 0.026194 -0.301921
v 0.240000 -0.015806 -0.298385
v 0.240000 0.026194 -0.298385
v 0.244145 -0.015806 -0.294433
v 0.244145 0.026194 -0.294433
v 0.247813 -0.015806 -0.290066
v 0.247813 0.026194 -0.290066
v 0.251003 -0.015806 -0.285282
v 0.251003 0.026194 -0.285282
v 0.253716 -0.015806 -0.280083
v 0.253716 0.026194 -0.280083
v 0.255951 -0.015806 -0.274467
v 0.255951 0.026194 -0.274467
v 0.257709 -0.015806 -0.268436
v 0.257709 0.026194 -0.268436
v 0.258989 -0.015806 -0.261989
v 0.258989 0.026194 -0.261989
v 0.229822 -0.015806 0.017534
v 0.229822 0.026194 0.017534
vn 0.000000 1.000000 0.000000
vn 0.000000 -1.000000 -0.000000
vn -0.350700 0.000000 -0.936500
vn 0.397100 0.000000 -0.917800
vn 0.998700 0.000000 0.050000
vn 0.350700 0.000000 0.936500
vn -0.397100 0.000000 0.917800
vn -0.998700 0.000000 -0.050000
vn -0.887400 0.000000 -0.460900
vn 0.050000 0.000000 -0.998700
vn 0.947600 0.000000 -0.319300
vn 0.970000 0.000000 0.242900
vn 0.910900 0.000000 0.412600
vn 0.875400 0.000000 0.483400
vn 0.832000 0.000000 0.554800
vn 0.780700 0.000000 0.624900
vn 0.722000 0.000000 0.691900
vn 0.657000 0.000000 0.753900
vn 0.587100 0.000000 0.809500
vn 0.514200 0.000000 0.857700
vn 0.440200 0.000000 0.897900
vn 0.367000 0.000000 0.930200
vn 0.296000 0.000000 0.955200
vn -0.491400 0.000000 0.871000
vn -0.996200 0.000000 0.087600
vn -0.526700 0.000000 -0.850000
vn 0.850000 0.000000 -0.526700
vn 0.887400 0.000000 0.460900
vn -0.050000 0.000000 0.998700
vn -0.947600 0.000000 0.319300
vn -0.960500 0.000000 -0.278300
vn -0.403900 0.000000 -0.914800
vn 0.314700 0.000000 -0.949200
vn 0.395200 0.000000 -0.918600
vn 0.479600 0.000000 -0.877500
vn 0.565400 0.000000 -0.824800
vn 0.649700 0.000000 -0.760200
vn 0.729000 0.000000 -0.684500
vn 0.800100 0.000000 -0.599900
vn 0.860500 0.000000 -0.509400
vn 0.909000 0.000000 -0.416700
vn 0.945700 0.000000 -0.325200
vn 0.971400 0.000000 -0.237500
vn 0.998900 0.000000 -0.046000
f 31//1 33//1 32//1
f 31//1 34//1 33//1
f 31//1 35//1 34//1
f 31//1 36//1 35//1
f 31//1 37//1 36//1
f 31//1 38//1 37//1
f 31//1 39//1 38//1
f 31//1 40//1 39//1
f 31//1 41//1 40//1
f 31//1 42//1 41//1
f 31//1 43//1 42//1
f 28//1 25//1 24//1
f 31//1 44//1 43//1
f 31//1 45//1 44//1
f 28//1 26//1 25//1
f 30//1 45//1 31//1
f 28//1 27//1 26//1
f 29//1 45//1 30//1
f 6//1 2//1 1//1
f 6//1 3//1 2//1
f 5//1 3//1 6//1
f 5//1 4//1 3//1
f 7//1 9//1 8//1
f 7//1 10//1 9//1
f 23//1 10//1 7//1
f 22//1 10//1 23//1
f 22//1 11//1 10//1
f 22//1 12//1 11//1
f 22//1 13//1 12//1
f 22//1 14//1 13//1
f 22//1 15//1 14//1
f 22//1 16//1 15//1
f 22//1 17//1 16//1
f 22//1 18//1 17//1
f 22//1 19//1 18//1
f 22//1 20//1 19//1
f 22//1 21//1 20//1
f 78//2 76//2 77//2
f 79//2 76//2 78//2
f 80//2 76//2 79//2
f 81//2 76//2 80//2
f 82//2 76//2 81//2
f 83//2 76//2 82//2
f 84//2 76//2 83//2
f 85//2 76//2 84//2
f 86//2 76//2 85//2
f 87//2 76//2 86//2
f 88//2 76//2 87//2
f 70//2 73//2 69//2
f 89//2 76//2 88//2
f 90//2 76//2 89//2
f 71//2 73//2 70//2
f 90//2 75//2 76//2
f 72//2 73//2 71//2
f 90//2 74//2 75//2
f 47//2 51//2 46//2
f 48//2 51//2 47//2
f 48//2 50//2 51//2
f 49//2 50//2 48//2
f 54//2 52//2 53//2
f 55//2 52//2 54//2
f 55//2 68//2 52//2
f 55//2 67//2 68//2
f 56//2 67//2 55//2
f 57//2 67//2 56//2
f 58//2 67//2 57//2
f 59//2 67//2 58//2
f 60//2 67//2 59//2
f 61//2 67//2 60//2
f 62//2 67//2 61//2
f 63//2 67//2 62//2
f 64//2 67//2 63//2
f 65//2 67//2 64//2
f 66//2 67//2 65//2
f 92//3 94//4 93//4 91//3
f 94//4 96//5 95//5 93//4
f 96//5 98//6 97//6 95//5
f 98//6 100//7 99//7 97//6
f 100//7 102//8 101//8 99//7
f 102//8 92//3 91//3 101//8
f 104//9 106//10 105//10 103//9
f 106//10 108//11 107//11 105//10
f 108//11 110//12 109//12 107//11
f 110//12 112//13 111//13 109//12
f 112//13 114//14 113//14 111//13
f 114//14 116//15 115//15 113//14
f 116//15 118//16 117//16 115//15
f 118//16 120//17 119//17 117//16
f 120//17 122//18 121//18 119//17
f 122//18 124//19 123//19 121//18
f 124//19 126//20 125//20 123//19
f 126//20 128//21 127//21 125//20
f 128//21 130//22 129//22 127//21
f 130//22 132//23 131//23 129//22
f 132//23 134//24 133//24 131//23
f 134//24 136//25 135//25 133//24
f 136//25 104//9 103//9 135//25
f 138//26 140//27 139//27 137//26
f 140//27 142//28 141//28 139//27
f 142//28 144//29 143//29 141//28
f 144//29 146//30 145//30 143//29
f 146//30 138//26 137//26 145//30
f 148//29 150//30 149//30 147//29
f 150//30 152//31 151//31 149//30
f 152//31 154//32 153//32 151//31
f 154//32 156//33 155//33 153//32
f 156//33 158//34 157//34 155//33
f 158//34 160//35 159//35 157//34
f 160//35 162//36 161//36 159//35
f 162//36 164//37 163//37 161//36
f 164//37 166//38 165//38 163//37
f 166//38 168//39 167//39 165//38
f 168//39 170//40 169//40 167//39
f 170//40 172//41 171//41 169//40
f 172//41 174//42 173//42 171//41
f 174//42 176//43 175//43 173//42
f 176//43 178//44 177//44 175//43
f 178//44 180//28 179//28 177//44
f 180//28 148//29 147//29 179//28
