v 0.222531 0.026194 -0.311904
v 0.182947 0.026194 -0.232040
v -0.097261 0.026194 -0.232040
v -0.177469 0.026194 -0.261989
v -0.174843 0.026194 -0.268436
v -0.171827 0.026194 -0.274467
v -0.168420 0.026194 -0.280083
v -0.164622 0.026194 -0.285282
v -0.160434 0.026194 -0.290066
v -0.155855 0.026194 -0.294433
v -0.150885 0.026194 -0.298385
v -0.145525 0.026194 -0.301921
v -0.139774 0.026194 -0.305040
v -0.133632 0.026194 -0.307744
v -0.127100 0.026194 -0.310032
v -0.120178 0.026194 -0.311904
v -0.180594 0.026194 -0.242023
v -0.100386 0.026194 -0.212074
v -0.120178 0.026194 -0.022398
v -0.188928 0.026194 0.037500
v -0.207678 0.026194 0.017534
v -0.123303 0.026194 0.007551
v 0.147531 0.026194 0.007551
v 0.185031 0.026194 0.047483
v 0.139197 0.026194 0.087415
v -0.131636 0.026194 0.087415
v -0.169136 0.026194 0.047483
v 0.136072 0.026194 0.117364
v 0.204822 0.026194 0.057466
v 0.223572 0.026194 0.077432
v 0.194406 0.026194 0.356955
v 0.191780 0.026194 0.363402
v 0.188763 0.026194 0.369434
v 0.185356 0.026194 0.375049
v 0.181558 0.026194 0.380249
v 0.177370 0.026194 0.385032
v 0.172791 0.026194 0.389400
v 0.167821 0.026194 0.393351
v 0.162461 0.026194 0.396887
v 0.156710 0.026194 0.400007
v 0.150569 0.026194 0.402710
v 0.144037 0.026194 0.404998
v 0.137114 0.026194 0.406870
v 0.114197 0.026194 0.327006
v 0.093364 0.026194 0.327006
v 0.116281 0.026194 0.406870
v -0.196219 0.026194 0.406870
v -0.202751 0.026194 0.404998
v -0.208806 0.026194 0.402710
v -0.214383 0.026194 0.400007
v -0.219483 0.026194 0.396887
v -0.224106 0.026194 0.393351
v -0.228251 0.026194 0.389400
v -0.231918 0.026194 0.385032
v -0.235108 0.026194 0.380249
v -0.237821 0.026194 0.375049
v -0.240056 0.026194 0.369434
v -0.241814 0.026194 0.363402
v -0.243094 0.026194 0.356955
v -0.156636 0.026194 0.327006
v -0.154553 0.026194 0.307040
v -0.241011 0.026194 0.336989
v -0.213928 0.026194 0.077432
v -0.191011 0.026194 0.057466
v -0.134761 0.026194 0.117364
v 0.222531 -0.015806 -0.311904
v 0.182947 -0.015806 -0.232040
v -0.097261 -0.015806 -0.232040
v -0.177469 -0.015806 -0.261989
v -0.174843 -0.015806 -0.268436
v -0.171827 -0.015806 -0.274467
v -0.168420 -0.015806 -0.280083
v -0.164622 -0.015806 -0.285282
v -0.160434 -0.015806 -0.290066
v -0.155855 -0.015806 -0.294433
v -0.150885 -0.015806 -0.298385
v -0.145525 -0.015806 -0.301921
v -0.139774 -0.015806 -0.305040
v -0.133632 -0.015806 -0.307744
v -0.127100 -0.015806 -0.310032
v -0.120178 -0.015806 -0.311904
v -0.180594 -0.015806 -0.242023
v -0.100386 -0.015806 -0.212074
v -0.120178 -0.015806 -0.022398
v -0.188928 -0.015806 0.037500
v -0.207678 -0.015806 0.017534
v -0.123303 -0.015806 0.007551
v 0.147531 -0.015806 0.007551
v 0.185031 -0.015806 0.047483
v 0.139197 -0.015806 0.087415
v -0.131636 -0.015806 0.087415
v -0.169136 -0.015806 0.047483
v 0.136072 -0.015806 0.117364
v 0.204822 -0.015806 0.057466
v 0.223572 -0.015806 0.077432
v 0.194406 -0.015806 0.356955
v 0.191780 -0.015806 0.363402
v 0.188763 -0.015806 0.369434
v 0.185356 -0.015806 0.375049
v 0.181558 -0.015806 0.380249
v 0.177370 -0.015806 0.385032
v 0.172791 -0.015806 0.389400
v 0.167821 -0.015806 0.393351
v 0.162461 -0.015806 0.396887
v 0.156710 -0.015806 0.400007
v 0.150569 -0.015806 0.402710
v 0.144037 -0.015806 0.404998
v 0.137114 -0.015806 0.406870
v 0.114197 -0.015806 0.327006
v 0.093364 -0.015806 0.327006
v 0.116281 -0.015806 0.406870
v -0.196219 -0.015806 0.406870
v -0.202751 -0.015806 0.404998
v -0.208806 -0.015806 0.402710
v -0.214383 -0.015806 0.400007
v -0.219483 -0.015806 0.396887
v -0.224106 -0.015806 0.393351
v -0.228251 -0.015806 0.389400
v -0.231918 -0.015806 0.385032
v -0.235108 -0.015806 0.380249
v -0.237821 -0.015806 0.375049
v -0.240056 -0.015806 0.369434
v -0.241814 -0.015806 0.363402
v -0.243094 -0.015806 0.356955
v -0.156636 -0.015806 0.327006
v -0.154553 -0.015806 0.307040
v -0.241011 -0.015806 0.336989
v -0.213928 -0.015806 0.077432
v -0.191011 -0.015806 0.057466
v -0.134761 -0.015806 0.117364
v -0.123303 -0.015806 0.007551
v -0.123303 0.026194 0.007551
v 0.147531 -0.015806 0.007551
v 0.147531 0.026194 0.007551
v 0.185031 -0.015806 0.047483
v 0.185031 0.026194 0.047483
v 0.139197 -0.015806 0.087415
v 0.139197 0.026194 0.087415
v -0.131636 -0.015806 0.087415
v -0.131636 0.026194 0.087415
v -0.169136 -0.015806 0.047483
v -0.169136 0.026194 0.047483
v 0.136072 -0.015806 0.117364
v 0.136072 0.026194 0.117364
v 0.204822 -0.015806 0.057466
v 0.204822 0.026194 0.057466
v 0.223572 -0.015806 0.077432
v 0.223572 0.026194 0.077432
v 0.194406 -0.015806 0.356955
v 0.194406 0.026194 0.356955
v 0.191780 -0.015806 0.363402
v 0.191780 0.026194 0.363402
v 0.188763 -0.015806 0.369434
v 0.188763 0.026194 0.369434
v 0.185356 -0.015806 0.375049
v 0.185356 0.026194 0.375049
v 0.181558 -0.015806 0.380249
v 0.181558 0.026194 0.380249
v 0.177370 -0.015806 0.385032
v 0.177370 0.026194 0.385032
v 0.172791 -0.015806 0.389400
v 0.172791 0.026194 0.389400
v 0.167821 -0.015806 0.393351
v 0.167821 0.026194 0.393351
v 0.162461 -0.015806 0.396887
v 0.162461 0.026194 0.396887
v 0.156710 -0.015806 0.400007
v 0.156710 0.026194 0.400007
v 0.150569 -0.015806 0.402710
v 0.150569 0.026194 0.402710
v 0.144037 -0.015806 0.404998
v 0.144037 0.026194 0.404998
v 0.137114 -0.015806 0.406870
v 0.137114 0.026194 0.406870
v 0.114197 -0.015806 0.327006
v 0.114197 0.026194 0.327006
v 0.093364 -0.015806 0.327006
v 0.093364 0.026194 0.327006
v 0.116281 -0.015806 0.406870
v 0.116281 0.026194 0.406870
v -0.196219 -0.015806 0.406870
v -0.196219 0.026194 0.406870
v -0.202751 -0.015806 0.404998
v -0.202751 0.026194 0.404998
v -0.208806 -0.015806 0.402710
v -0.208806 0.026194 0.402710
v -0.214383 -0.015806 0.400007
v -0.214383 0.026194 0.400007
v -0.219483 -0.015806 0.396887
v -0.219483 0.026194 0.396887
v -0.224106 -0.015806 0.393351
v -0.224106 0.026194 0.393351
v -0.228251 -0.015806 0.389400
v -0.228251 0.026194 0.389400
v -0.231918 -0.015806 0.385032
v -0.231918 0.026194 0.385032
v -0.235108 -0.015806 0.380249
v -0.235108 0.026194 0.380249
v -0.237821 -0.015806 0.375049
v -0.237821 0.026194 0.375049
v -0.240056 -0.015806 0.369434
v -0.240056 0.026194 0.369434
v -0.241814 -0.015806 0.363402
v -0.241814 0.026194 0.363402
v -0.243094 -0.015806 0.356955
v -0.243094 0.026194 0.356955
v -0.156636 -0.015806 0.327006
v -0.156636 0.026194 0.327006
v -0.154553 -0.015806 0.307040
v -0.154553 0.026194 0.307040
v -0.241011 -0.015806 0.336989
v -0.241011 0.026194 0.336989
v -0.213928 -0.015806 0.077432
v -0.213928 0.026194 0.077432
v -0.191011 -0.015806 0.057466
v -0.191011 0.026194 0.057466
v -0.134761 -0.015806 0.117364
v -0.134761 0.026194 0.117364
v 0.222531 -0.015806 -0.311904
v 0.222531 0.026194 -0.311904
v 0.182947 -0.015806 -0.232040
v 0.182947 0.026194 -0.232040
v -0.097261 -0.015806 -0.232040
v -0.097261 0.026194 -0.232040
v -0.177469 -0.015806 -0.261989
v -0.177469 0.026194 -0.261989
v -0.174843 -0.015806 -0.268436
v -0.174843 0.026194 -0.268436
v -0.171827 -0.015806 -0.274467
v -0.171827 0.026194 -0.274467
v -0.168420 -0.015806 -0.280083
v -0.168420 0.026194 -0.280083
v -0.164622 -0.015806 -0.285282
v -0.164622 0.026194 -0.285282
v -0.160434 -0.015806 -0.290066
v -0.160434 0.026194 -0.290066
v -0.155855 -0.015806 -0.294433
v -0.155855 0.026194 -0.294433
v -0.150885 -0.015806 -0.298385
v -0.150885 0.026194 -0.298385
v -0.145525 -0.015806 -0.301921
v -0.145525 0.026194 -0.301921
v -0.139774 -0.015806 -0.305040
v -0.139774 0.026194 -0.305040
v -0.133632 -0.015806 -0.307744
v -0.133632 0.026194 -0.307744
v -0.127100 -0.015806 -0.310032
v -0.127100 0.026194 -0.310032
v -0.120178 -0.015806 -0.311904
v -0.120178 0.026194 -0.311904
v -0.180594 -0.015806 -0.242023
v -0.180594 0.026194 -0.242023
v -0.100386 -0.015806 -0.212074
v -0.100386 0.026194 -0.212074
v -0.120178 -0.015806 -0.022398
v -0.120178 0.026194 -0.022398
v -0.188928 -0.015806 0.037500
v -0.188928 0.026194 0.037500
v -0.207678 -0.015806 0.017534
v -0.207678 0.026194 0.017534
vn 0.000000 1.000000 0.000000
vn 0.000000 -1.000000 0.000000
vn -0.350700 0.000000 -0.936500
vn 0.397100 0.000000 -0.917800
vn 0.998700 0.000000 0.050000
vn 0.350700 0.000000 0.936500
vn -0.397100 0.000000 0.917800
vn -0.998700 0.000000 -0.050000
vn -0.887400 0.000000 -0.460900
vn 0.050000 0.000000 -0.998700
vn 0.947600 0.000000 -0.319300
vn 0.970000 0.000000 0.242900
vn 0.910900 0.000000 0.412600
vn 0.875400 0.000000 0.483400
vn 0.832000 0.000000 0.554800
vn 0.780700 0.000000 0.624900
vn 0.722000 0.000000 0.691900
vn 0.657000 0.000000 0.753900
vn 0.587100 0.000000 0.809500
vn 0.514200 0.000000 0.857700
vn 0.440200 0.000000 0.897900
vn 0.367000 0.000000 0.930200
vn 0.296000 0.000000 0.955200
vn -0.491400 0.000000 0.871000
vn -0.996200 0.000000 0.087600
vn 0.601700 0.000000 -0.798700
vn 0.798700 0.000000 0.601700
vn -0.139100 0.000000 0.990300
vn -0.314700 0.000000 0.949200
vn -0.395200 0.000000 0.918600
vn -0.479600 0.000000 0.877500
vn -0.565500 0.000000 0.824800
vn -0.649700 0.000000 0.760200
vn -0.729000 0.000000 0.684500
vn -0.800100 0.000000 0.599900
vn -0.860500 0.000000 0.509400
vn -0.909000 0.000000 0.416700
vn -0.945700 0.000000 0.325200
vn -0.971400 0.000000 0.237500
vn -0.867500 0.000000 -0.497400
vn -0.166000 0.000000 -0.986100
vn 0.783400 0.000000 0.621500
vn -0.621500 0.000000 0.783400
vn 0.849700 0.000000 -0.527200
vn 0.527200 0.000000 0.849700
vn -0.177700 0.000000 0.984100
vn -0.915800 0.000000 0.401700
vn -0.910900 0.000000 -0.412600
vn -0.875400 0.000000 -0.483400
vn -0.832000 0.000000 -0.554800
vn -0.780700 0.000000 -0.624900
vn -0.722000 0.000000 -0.691900
vn -0.657000 0.000000 -0.753900
vn -0.587100 0.000000 -0.809500
vn -0.514200 0.000000 -0.857700
vn -0.440300 0.000000 -0.897900
vn -0.367000 0.000000 -0.930200
vn -0.296000 0.000000 -0.955200
vn -0.131700 0.000000 -0.991300
vn -0.526700 0.000000 -0.850000
vn 0.850000 0.000000 -0.526700
vn 0.887400 0.000000 0.460900
vn -0.050000 0.000000 0.998700
vn -0.947600 0.000000 0.319300
f 27//1 23//1 22//1
f 27//1 24//1 23//1
f 26//1 24//1 27//1
f 26//1 25//1 24//1
f 63//1 65//1 64//1
f 28//1 30//1 29//1
f 62//1 65//1 63//1
f 28//1 31//1 30//1
f 62//1 61//1 65//1
f 44//1 31//1 28//1
f 59//1 45//1 60//1
f 59//1 46//1 45//1
f 43//1 31//1 44//1
f 58//1 46//1 59//1
f 43//1 32//1 31//1
f 43//1 33//1 32//1
f 57//1 46//1 58//1
f 43//1 34//1 33//1
f 56//1 46//1 57//1
f 43//1 35//1 34//1
f 55//1 46//1 56//1
f 54//1 46//1 55//1
f 43//1 36//1 35//1
f 53//1 46//1 54//1
f 43//1 37//1 36//1
f 52//1 46//1 53//1
f 43//1 38//1 37//1
f 51//1 46//1 52//1
f 43//1 39//1 38//1
f 50//1 46//1 51//1
f 43//1 40//1 39//1
f 49//1 46//1 50//1
f 43//1 41//1 40//1
f 48//1 46//1 49//1
f 43//1 42//1 41//1
f 47//1 46//1 48//1
f 15//1 1//1 16//1
f 15//1 2//1 1//1
f 14//1 2//1 15//1
f 13//1 2//1 14//1
f 12//1 2//1 13//1
f 11//1 2//1 12//1
f 10//1 2//1 11//1
f 9//1 2//1 10//1
f 8//1 2//1 9//1
f 7//1 2//1 8//1
f 6//1 2//1 7//1
f 5//1 2//1 6//1
f 4//1 2//1 5//1
f 3//1 2//1 4//1
f 21//1 18//1 17//1
f 21//1 19//1 18//1
f 21//1 20//1 19//1
f 88//2 92//2 87//2
f 89//2 92//2 88//2
f 89//2 91//2 92//2
f 90//2 91//2 89//2
f 130//2 128//2 129//2
f 95//2 93//2 94//2
f 130//2 127//2 128//2
f 96//2 93//2 95//2
f 126//2 127//2 130//2
f 96//2 109//2 93//2
f 110//2 124//2 125//2
f 111//2 124//2 110//2
f 96//2 108//2 109//2
f 111//2 123//2 124//2
f 97//2 108//2 96//2
f 98//2 108//2 97//2
f 111//2 122//2 123//2
f 99//2 108//2 98//2
f 111//2 121//2 122//2
f 100//2 108//2 99//2
f 111//2 120//2 121//2
f 111//2 119//2 120//2
f 101//2 108//2 100//2
f 111//2 118//2 119//2
f 102//2 108//2 101//2
f 111//2 117//2 118//2
f 103//2 108//2 102//2
f 111//2 116//2 117//2
f 104//2 108//2 103//2
f 111//2 115//2 116//2
f 105//2 108//2 104//2
f 111//2 114//2 115//2
f 106//2 108//2 105//2
f 111//2 113//2 114//2
f 107//2 108//2 106//2
f 111//2 112//2 113//2
f 66//2 80//2 81//2
f 67//2 80//2 66//2
f 67//2 79//2 80//2
f 67//2 78//2 79//2
f 67//2 77//2 78//2
f 67//2 76//2 77//2
f 67//2 75//2 76//2
f 67//2 74//2 75//2
f 67//2 73//2 74//2
f 67//2 72//2 73//2
f 67//2 71//2 72//2
f 67//2 70//2 71//2
f 67//2 69//2 70//2
f 67//2 68//2 69//2
f 83//2 86//2 82//2
f 84//2 86//2 83//2
f 85//2 86//2 84//2
f 132//3 134//4 133//4 131//3
f 134//4 136//5 135//5 133//4
f 136//5 138//6 137//6 135//5
f 138//6 140//7 139//7 137//6
f 140//7 142//8 141//8 139//7
f 142//8 132//3 131//3 141//8
f 144//9 146//10 145//10 143//9
f 146//10 148//11 147//11 145//10
f 148//11 150//12 149//12 147//11
f 150//12 152//13 151//13 149//12
f 152//13 154//14 153//14 151//13
f 154//14 156//15 155//15 153//14
f 156//15 158//16 157//16 155//15
f 158//16 160//17 159//17 157//16
f 160//17 162//18 161//18 159//17
f 162//18 164//19 163//19 161//18
f 164//19 166//20 165//20 163//19
f 166//20 168//21 167//21 165//20
f 168//21 170//22 169//22 167//21
f 170//22 172//23 171//23 169//22
f 172//23 174//24 173//24 171//23
f 174//24 176//25 175//25 173//24
f 176//25 144//9 143//9 175//25
f 178//26 180//27 179//27 177//26
f 180//27 182//28 181//28 179//27
f 182//28 184//29 183//29 181//28
f 184//29 186//30 185//30 183//29
f 186//30 188//31 187//31 185//30
f 188//31 190//32 189//32 187//31
f 190//32 192//33 191//33 189//32
f 192//33 194//34 193//34 191//33
f 194//34 196//35 195//35 193//34
f 196//35 198//36 197//36 195//35
f 198//36 200//37 199//37 197//36
f 200//37 202//38 201//38 199//37
f 202//38 204//39 203//39 201//38
f 204//39 206//40 205//40 203//39
f 206//40 208//41 207//41 205//40
f 208//41 178//26 177//26 207//41
f 210//42 212//43 211//43 209//42
f 212//43 214//9 213//9 211//43
f 214//9 216//10 215//10 213//9
f 216//10 218//11 217//11 215//10
f 218//11 210//42 209//42 217//11
f 220//44 222//45 221//45 219//44
f 222//45 224//46 223//46 221//45
f 224//46 226//47 225//47 223//46
f 226//47 228//48 227//48 225//47
f 228//48 230//49 229//49 227//48
f 230//49 232//50 231//50 229//49
f 232//50 234//51 233//51 231//50
f 234//51 236//52 235//52 233//51
f 236//52 238//53 237//53 235//52
f 238//53 240//54 239//54 237//53
f 240//54 242//55 241//55 239//54
f 242//55 244//56 243//56 241//55
f 244//56 246//57 245//57 243//56
f 246//57 248//58 247//58 245//57
f 248//58 250//59 249//59 247//58
f 250//59 220//44 219//44 249//59
f 252//60 254//61 253//61 251//60
f 254//61 256//62 255//62 253//61
f 256//62 258//63 257//63 255//62
f 258//63 260//64 259//64 257//63
f 260//64 252//60 251//60 259//64
