v -0.123303 0.026194 0.007551
v 0.147531 0.026194 0.007551
v 0.185031 0.026194 0.047483
v 0.139197 0.026194 0.087415
v -0.131636 0.026194 0.087415
v -0.169136 0.026194 0.047483
v 0.222531 0.026194 -0.311904
v 0.182947 0.026194 -0.232040
v -0.097261 0.026194 -0.232040
v -0.177469 0.026194 -0.261989
v -0.174843 0.026194 -0.268436
v -0.171827 0.026194 -0.274467
v -0.168420 0.026194 -0.280083
v -0.164622 0.026194 -0.285282
v -0.160434 0.026194 -0.290066
v -0.155855 0.026194 -0.294433
v -0.150885 0.026194 -0.298385
v -0.145525 0.026194 -0.301921
v -0.139774 0.026194 -0.305040
v -0.133632 0.026194 -0.307744
v -0.127100 0.026194 -0.310032
v -0.120178 0.026194 -0.311904
v -0.180594 0.026194 -0.242023
v -0.100386 0.026194 -0.212074
v -0.120178 0.026194 -0.022398
v -0.188928 0.026194 0.037500
v -0.207678 0.026194 0.017534
v 0.136072 0.026194 0.117364
v 0.204822 0.026194 0.057466
v 0.223572 0.026194 0.077432
v 0.194406 0.026194 0.356955
v 0.191780 0.026194 0.363402
v 0.188763 0.026194 0.369434
v 0.185356 0.026194 0.375049
v 0.181558 0.026194 0.380249
v 0.177370 0.026194 0.385032
v 0.172791 0.026194 0.389400
v 0.167821 0.026194 0.393351
v 0.162461 0.026194 0.396887
v 0.156710 0.026194 0.400007
v 0.150569 0.026194 0.402710
v 0.144037 0.026194 0.404998
v 0.137114 0.026194 0.406870
v 0.114197 0.026194 0.327006
v 0.093364 0.026194 0.327006
v 0.116281 0.026194 0.406870
v -0.196219 0.026194 0.406870
v -0.202751 0.026194 0.404998
v -0.208806 0.026194 0.402710
v -0.214383 0.026194 0.400007
v -0.219483 0.026194 0.396887
v -0.224106 0.026194 0.393351
v -0.228251 0.026194 0.389400
v -0.231918 0.026194 0.385032
v -0.235108 0.026194 0.380249
v -0.237821 0.026194 0.375049
v -0.240056 0.026194 0.369434
v -0.241814 0.026194 0.363402
v -0.243094 0.026194 0.356955
v -0.156636 0.026194 0.327006
v -0.123303 -0.015806 0.007551
v 0.147531 -0.015806 0.007551
v 0.185031 -0.015806 0.047483
v 0.139197 -0.015806 0.087415
v -0.131636 -0.015806 0.087415
v -0.169136 -0.015806 0.047483
v 0.222531 -0.015806 -0.311904
v 0.182947 -0.015806 -0.232040
v -0.097261 -0.015806 -0.232040
v -0.177469 -0.015806 -0.261989
v -0.174843 -0.015806 -0.268436
v -0.171827 -0.015806 -0.274467
v -0.168420 -0.015806 -0.280083
v -0.164622 -0.015806 -0.285282
v -0.160434 -0.015806 -0.290066
v -0.155855 -0.015806 -0.294433
v -0.150885 -0.015806 -0.298385
v -0.145525 -0.015806 -0.301921
v -0.139774 -0.015806 -0.305040
v -0.133632 -0.015806 -0.307744
v -0.127100 -0.015806 -0.310032
v -0.120178 -0.015806 -0.311904
v -0.180594 -0.015806 -0.242023
v -0.100386 -0.015806 -0.212074
v -0.120178 -0.015806 -0.022398
v -0.188928 -0.015806 0.037500
v -0.207678 -0.015806 0.017534
v 0.136072 -0.015806 0.117364
v 0.204822 -0.015806 0.057466
v 0.223572 -0.015806 0.077432
v 0.194406 -0.015806 0.356955
v 0.191780 -0.015806 0.363402
v 0.188763 -0.015806 0.369434
v 0.185356 -0.015806 0.375049
v 0.181558 -0.015806 0.380249
v 0.177370 -0.015806 0.385032
v 0.172791 -0.015806 0.389400
v 0.167821 -0.015806 0.393351
v 0.162461 -0.015806 0.396887
v 0.156710 -0.015806 0.400007
v 0.150569 -0.015806 0.402710
v 0.144037 -0.015806 0.404998
v 0.137114 -0.015806 0.406870
v 0.114197 -0.015806 0.327006
v 0.093364 -0.015806 0.327006
v 0.116281 -0.015806 0.406870
v -0.196219 -0.015806 0.406870
v -0.202751 -0.015806 0.404998
v -0.208806 -0.015806 0.402710
v -0.214383 -0.015806 0.400007
v -0.219483 -0.015806 0.396887
v -0.224106 -0.015806 0.393351
v -0.228251 -0.015806 0.389400
v -0.231918 -0.015806 0.385032
v -0.235108 -0.015806 0.380249
v -0.237821 -0.015806 0.375049
v -0.240056 -0.015806 0.369434
v -0.241814 -0.015806 0.363402
v -0.243094 -0.015806 0.356955
v -0.156636 -0.015806 0.327006
v -0.123303 -0.015806 0.007551
v -0.123303 0.026194 0.007551
v 0.147531 -0.015806 0.007551
v 0.147531 0.026194 0.007551
v 0.185031 -0.015806 0.047483
v 0.185031 0.026194 0.047483
v 0.139197 -0.015806 0.087415
v 0.139197 0.026194 0.087415
v -0.131636 -0.015806 0.087415
v -0.131636 0.026194 0.087415
v -0.169136 -0.015806 0.047483
v -0.169136 0.026194 0.047483
v 0.136072 -0.015806 0.117364
v 0.136072 0.026194 0.117364
v 0.204822 -0.015806 0.057466
v 0.204822 0.026194 0.057466
v 0.223572 -0.015806 0.077432
v 0.223572 0.026194 0.077432
v 0.194406 -0.015806 0.356955
v 0.194406 0.026194 0.356955
v 0.191780 -0.015806 0.363402
v 0.191780 0.026194 0.363402
v 0.188763 -0.015806 0.369434
v 0.188763 0.026194 0.369434
v 0.185356 -0.015806 0.375049
v 0.185356 0.026194 0.375049
v 0.181558 -0.015806 0.380249
v 0.181558 0.026194 0.380249
v 0.177370 -0.015806 0.385032
v 0.177370 0.026194 0.385032
v 0.172791 -0.015806 0.389400
v 0.172791 0.026194 0.389400
v 0.167821 -0.015806 0.393351
v 0.167821 0.026194 0.393351
v 0.162461 -0.015806 0.396887
v 0.162461 0.026194 0.396887
v 0.156710 -0.015806 0.400007
v 0.156710 0.026194 0.400007
v 0.150569 -0.015806 0.402710
v 0.150569 0.026194 0.402710
v 0.144037 -0.015806 0.404998
v 0.144037 0.026194 0.404998
v 0.137114 -0.015806 0.406870
v 0.137114 0.026194 0.406870
v 0.114197 -0.015806 0.327006
v 0.114197 0.026194 0.327006
v 0.093364 -0.015806 0.327006
v 0.093364 0.026194 0.327006
v 0.116281 -0.015806 0.406870
v 0.116281 0.026194 0.406870
v -0.196219 -0.015806 0.406870
v -0.196219 0.026194 0.406870
v -0.202751 -0.015806 0.404998
v -0.202751 0.026194 0.404998
v -0.208806 -0.015806 0.402710
v -0.208806 0.026194 0.402710
v -0.214383 -0.015806 0.400007
v -0.214383 0.026194 0.400007
v -0.219483 -0.015806 0.396887
v -0.219483 0.026194 0.396887
v -0.224106 -0.015806 0.393351
v -0.224106 0.026194 0.393351
v -0.228251 -0.015806 0.389400
v -0.228251 0.026194 0.389400
v -0.231918 -0.015806 0.385032
v -0.231918 0.026194 0.385032
v -0.235108 -0.015806 0.380249
v -0.235108 0.026194 0.380249
v -0.237821 -0.015806 0.375049
v -0.237821 0.026194 0.375049
v -0.240056 -0.015806 0.369434
v -0.240056 0.026194 0.369434
v -0.241814 -0.015806 0.363402
v -0.241814 0.026194 0.363402
v -0.243094 -0.015806 0.356955
v -0.243094 0.026194 0.356955
v -0.156636 -0.015806 0.327006
v -0.156636 0.026194 0.327006
v 0.222531 -0.015806 -0.311904
v 0.222531 0.026194 -0.311904
v 0.182947 -0.015806 -0.232040
v 0.182947 0.026194 -0.232040
v -0.097261 -0.015806 -0.232040
v -0.097261 0.026194 -0.232040
v -0.177469 -0.015806 -0.261989
v -0.177469 0.026194 -0.261989
v -0.174843 -0.015806 -0.268436
v -0.174843 0.026194 -0.268436
v -0.171827 -0.015806 -0.274467
v -0.171827 0.026194 -0.274467
v -0.168420 -0.015806 -0.280083
v -0.168420 0.026194 -0.280083
v -0.164622 -0.015806 -0.285282
v -0.164622 0.026194 -0.285282
v -0.160434 -0.015806 -0.290066
v -0.160434 0.026194 -0.290066
v -0.155855 -0.015806 -0.294433
v -0.155855 0.026194 -0.294433
v -0.150885 -0.015806 -0.298385
v -0.150885 0.026194 -0.298385
v -0.145525 -0.015806 -0.301921
v -0.145525 0.026194 -0.301921
v -0.139774 -0.015806 -0.305040
v -0.139774 0.026194 -0.305040
v -0.133632 -0.015806 -0.307744
v -0.133632 0.026194 -0.307744
v -0.127100 -0.015806 -0.310032
v -0.127100 0.026194 -0.310032
v -0.120178 -0.015806 -0.311904
v -0.120178 0.026194 -0.311904
v -0.180594 -0.015806 -0.242023
v -0.180594 0.026194 -0.242023
v -0.100386 -0.015806 -0.212074
v -0.100386 0.026194 -0.212074
v -0.120178 -0.015806 -0.022398
v -0.120178 0.026194 -0.022398
v -0.188928 -0.015806 0.037500
v -0.188928 0.026194 0.037500
v -0.207678 -0.015806 0.017534
v -0.207678 0.026194 0.017534
vn 0.000000 1.000000 0.000000
vn 0.000000 -1.000000 0.000000
vn -0.350700 0.000000 -0.936500
vn 0.397100 0.000000 -0.917800
vn 0.998700 0.000000 0.050000
vn 0.350700 0.000000 0.936500
vn -0.397100 0.000000 0.917800
vn -0.998700 0.000000 -0.050000
vn -0.887400 0.000000 -0.460900
vn 0.050000 0.000000 -0.998700
vn 0.947600 0.000000 -0.319300
vn 0.970000 0.000000 0.242900
vn 0.910900 0.000000 0.412600
vn 0.875400 0.000000 0.483400
vn 0.832000 0.000000 0.554800
vn 0.780700 0.000000 0.624900
vn 0.722000 0.000000 0.691900
vn 0.657000 0.000000 0.753900
vn 0.587100 0.000000 0.809500
vn 0.514200 0.000000 0.857700
vn 0.440200 0.000000 0.897900
vn 0.367000 0.000000 0.930200
vn 0.296000 0.000000 0.955200
vn -0.491400 0.000000 0.871000
vn -0.996200 0.000000 0.087600
vn 0.601700 0.000000 -0.798700
vn 0.798700 0.000000 0.601700
vn -0.139100 0.000000 0.990300
vn -0.314700 0.000000 0.949200
vn -0.395200 0.000000 0.918600
vn -0.479600 0.000000 0.877500
vn -0.565500 0.000000 0.824800
vn -0.649700 0.000000 0.760200
vn -0.729000 0.000000 0.684500
vn -0.800100 0.000000 0.599900
vn -0.860500 0.000000 0.509400
vn -0.909000 0.000000 0.416700
vn -0.945700 0.000000 0.325200
vn -0.971400 0.000000 0.237500
vn -0.867500 0.000000 -0.497400
vn -0.166000 0.000000 -0.986100
vn 0.849700 0.000000 -0.527200
vn 0.527200 0.000000 0.849700
vn -0.177700 0.000000 0.984100
vn -0.915800 0.000000 0.401700
vn -0.910900 0.000000 -0.412600
vn -0.875400 0.000000 -0.483400
vn -0.832000 0.000000 -0.554800
vn -0.780700 0.000000 -0.624900
vn -0.722000 0.000000 -0.691900
vn -0.657000 0.000000 -0.753900
vn -0.587100 0.000000 -0.809500
vn -0.514200 0.000000 -0.857700
vn -0.440300 0.000000 -0.897900
vn -0.367000 0.000000 -0.930200
vn -0.296000 0.000000 -0.955200
vn -0.131700 0.000000 -0.991300
vn -0.526700 0.000000 -0.850000
vn 0.850000 0.000000 -0.526700
vn 0.887400 0.000000 0.460900
vn -0.050000 0.000000 0.998700
vn -0.947600 0.000000 0.319300
f 28//1 30//1 29//1
f 28//1 31//1 30//1
f 44//1 31//1 28//1
f 59//1 45//1 60//1
f 59//1 46//1 45//1
f 43//1 31//1 44//1
f 58//1 46//1 59//1
f 43//1 32//1 31//1
f 43//1 33//1 32//1
f 57//1 46//1 58//1
f 43//1 34//1 33//1
f 56//1 46//1 57//1
f 43//1 35//1 34//1
f 55//1 46//1 56//1
f 54//1 46//1 55//1
f 43//1 36//1 35//1
f 53//1 46//1 54//1
f 43//1 37//1 36//1
f 52//1 46//1 53//1
f 43//1 38//1 37//1
f 51//1 46//1 52//1
f 43//1 39//1 38//1
f 50//1 46//1 51//1
f 43//1 40//1 39//1
f 49//1 46//1 50//1
f 43//1 41//1 40//1
f 48//1 46//1 49//1
f 43//1 42//1 41//1
f 47//1 46//1 48//1
f 21//1 7//1 22//1
f 21//1 8//1 7//1
f 20//1 8//1 21//1
f 19//1 8//1 20//1
f 18//1 8//1 19//1
f 17//1 8//1 18//1
f 16//1 8//1 17//1
f 15//1 8//1 16//1
f 14//1 8//1 15//1
f 13//1 8//1 14//1
f 12//1 8//1 13//1
f 11//1 8//1 12//1
f 10//1 8//1 11//1
f 9//1 8//1 10//1
f 27//1 24//1 23//1
f 27//1 25//1 24//1
f 27//1 26//1 25//1
f 6//1 2//1 1//1
f 6//1 3//1 2//1
f 5//1 3//1 6//1
f 5//1 4//1 3//1
f 90//2 88//2 89//2
f 91//2 88//2 90//2
f 91//2 104//2 88//2
f 105//2 119//2 120//2
f 106//2 119//2 105//2
f 91//2 103//2 104//2
f 106//2 118//2 119//2
f 92//2 103//2 91//2
f 93//2 103//2 92//2
f 106//2 117//2 118//2
f 94//2 103//2 93//2
f 106//2 116//2 117//2
f 95//2 103//2 94//2
f 106//2 115//2 116//2
f 106//2 114//2 115//2
f 96//2 103//2 95//2
f 106//2 113//2 114//2
f 97//2 103//2 96//2
f 106//2 112//2 113//2
f 98//2 103//2 97//2
f 106//2 111//2 112//2
f 99//2 103//2 98//2
f 106//2 110//2 111//2
f 100//2 103//2 99//2
f 106//2 109//2 110//2
f 101//2 103//2 100//2
f 106//2 108//2 109//2
f 102//2 103//2 101//2
f 106//2 107//2 108//2
f 67//2 81//2 82//2
f 68//2 81//2 67//2
f 68//2 80//2 81//2
f 68//2 79//2 80//2
f 68//2 78//2 79//2
f 68//2 77//2 78//2
f 68//2 76//2 77//2
f 68//2 75//2 76//2
f 68//2 74//2 75//2
f 68//2 73//2 74//2
f 68//2 72//2 73//2
f 68//2 71//2 72//2
f 68//2 70//2 71//2
f 68//2 69//2 70//2
f 84//2 87//2 83//2
f 85//2 87//2 84//2
f 86//2 87//2 85//2
f 62//2 66//2 61//2
f 63//2 66//2 62//2
f 63//2 65//2 66//2
f 64//2 65//2 63//2
f 122//3 124//4 123//4 121//3
f 124//4 126//5 125//5 123//4
f 126//5 128//6 127//6 125//5
f 128//6 130//7 129//7 127//6
f 130//7 132//8 131//8 129//7
f 132//8 122//3 121//3 131//8
f 134//9 136//10 135//10 133//9
f 136//10 138//11 137//11 135//10
f 138//11 140//12 139//12 137//11
f 140//12 142//13 141//13 139//12
f 142//13 144//14 143//14 141//13
f 144//14 146//15 145//15 143//14
f 146//15 148//16 147//16 145//15
f 148//16 150//17 149//17 147//16
f 150//17 152//18 151//18 149//17
f 152//18 154//19 153//19 151//18
f 154//19 156//20 155//20 153//19
f 156//20 158//21 157//21 155//20
f 158//21 160//22 159//22 157//21
f 160//22 162//23 161//23 159//22
f 162//23 164//24 163//24 161//23
f 164//24 166//25 165//25 163//24
f 166//25 134//9 133//9 165//25
f 168//26 170//27 169//27 167//26
f 170//27 172//28 171//28 169//27
f 172//28 174//29 173//29 171//28
f 174//29 176//30 175//30 173//29
f 176//30 178//31 177//31 175//30
f 178//31 180//32 179//32 177//31
f 180//32 182//33 181//33 179//32
f 182//33 184//34 183//34 181//33
f 184//34 186//35 185//35 183//34
f 186//35 188//36 187//36 185//35
f 188//36 190//37 189//37 187//36
f 190//37 192//38 191//38 189//37
f 192//38 194//39 193//39 191//38
f 194//39 196//40 195//40 193//39
f 196//40 198//41 197//41 195//40
f 198//41 168//26 167//26 197//41
f 200//42 202//43 201//43 199//42
f 202//43 204//44 203//44 201//43
f 204//44 206//45 205//45 203//44
f 206//45 208//46 207//46 205//45
f 208//46 210//47 209//47 207//46
f 210//47 212//48 211//48 209//47
f 212//48 214//49 213//49 211//48
f 214//49 216//50 215//50 213//49
f 216//50 218//51 217//51 215//50
f 218//51 220//52 219//52 217//51
f 220//52 222//53 221//53 219//52
f 222//53 224//54 223//54 221//53
f 224//54 226//55 225//55 223//54
f 226//55 228//56 227//56 225//55
f 228//56 230//57 229//57 227//56
f 230//57 200//42 199//42 229//57
f 232//58 234//59 233//59 231//58
f 234//59 236//60 235//60 233//59
f 236//60 238//61 237//61 235//60
f 238//61 240//62 239//62 237//61
f 240//62 232//58 231//58 239//62
