v -0.123303 0.026194 0.007551
v 0.147531 0.026194 0.007551
v 0.185031 0.026194 0.047483
v 0.139197 0.026194 0.087415
v -0.131636 0.026194 0.087415
v -0.169136 0.026194 0.047483
v 0.191281 0.026194 -0.311904
v 0.151697 0.026194 -0.232040
v -0.097261 0.026194 -0.232040
v -0.177469 0.026194 -0.261989
v -0.174843 0.026194 -0.268436
v -0.171827 0.026194 -0.274467
v -0.168420 0.026194 -0.280083
v -0.164622 0.026194 -0.285282
v -0.160434 0.026194 -0.290066
v -0.155855 0.026194 -0.294433
v -0.150885 0.026194 -0.298385
v -0.145525 0.026194 -0.301921
v -0.139774 0.026194 -0.305040
v -0.133632 0.026194 -0.307744
v -0.127100 0.026194 -0.310032
v -0.120178 0.026194 -0.311904
v -0.180594 0.026194 -0.242023
v -0.100386 0.026194 -0.212074
v -0.120178 0.026194 -0.022398
v -0.188928 0.026194 0.037500
v -0.207678 0.026194 0.017534
v 0.206906 0.026194 0.037500
v 0.150656 0.026194 -0.022398
v 0.172531 0.026194 -0.232040
v 0.212114 0.026194 -0.311904
v 0.218646 0.026194 -0.310032
v 0.224701 0.026194 -0.307744
v 0.230278 0.026194 -0.305040
v 0.235378 0.026194 -0.301921
v 0.240000 0.026194 -0.298385
v 0.244145 0.026194 -0.294433
v 0.247813 0.026194 -0.290066
v 0.251003 0.026194 -0.285282
v 0.253716 0.026194 -0.280083
v 0.255951 0.026194 -0.274467
v 0.257709 0.026194 -0.268436
v 0.258989 0.026194 -0.261989
v 0.229822 0.026194 0.017534
v 0.136072 0.026194 0.117364
v 0.204822 0.026194 0.057466
v 0.223572 0.026194 0.077432
v 0.194406 0.026194 0.356955
v 0.191780 0.026194 0.363402
v 0.188763 0.026194 0.369434
v 0.185356 0.026194 0.375049
v 0.181558 0.026194 0.380249
v 0.177370 0.026194 0.385032
v 0.172791 0.026194 0.389400
v 0.167821 0.026194 0.393351
v 0.162461 0.026194 0.396887
v 0.156710 0.026194 0.400007
v 0.150569 0.026194 0.402710
v 0.144037 0.026194 0.404998
v 0.137114 0.026194 0.406870
v 0.114197 0.026194 0.327006
v 0.093364 0.026194 0.327006
v 0.116281 0.026194 0.406870
v -0.196219 0.026194 0.406870
v -0.202751 0.026194 0.404998
v -0.208806 0.026194 0.402710
v -0.214383 0.026194 0.400007
v -0.219483 0.026194 0.396887
v -0.224106 0.026194 0.393351
v -0.228251 0.026194 0.389400
v -0.231918 0.026194 0.385032
v -0.235108 0.026194 0.380249
v -0.237821 0.026194 0.375049
v -0.240056 0.026194 0.369434
v -0.241814 0.026194 0.363402
v -0.243094 0.026194 0.356955
v -0.156636 0.026194 0.327006
v -0.123303 -0.015806 0.007551
v 0.147531 -0.015806 0.007551
v 0.185031 -0.015806 0.047483
v 0.139197 -0.015806 0.087415
v -0.131636 -0.015806 0.087415
v -0.169136 -0.015806 0.047483
v 0.191281 -0.015806 -0.311904
v 0.151697 -0.015806 -0.232040
v -0.097261 -0.015806 -0.232040
v -0.177469 -0.015806 -0.261989
v -0.174843 -0.015806 -0.268436
v -0.171827 -0.015806 -0.274467
v -0.168420 -0.015806 -0.280083
v -0.164622 -0.015806 -0.285282
v -0.160434 -0.015806 -0.290066
v -0.155855 -0.015806 -0.294433
v -0.150885 -0.015806 -0.298385
v -0.145525 -0.015806 -0.301921
v -0.139774 -0.015806 -0.305040
v -0.133632 -0.015806 -0.307744
v -0.127100 -0.015806 -0.310032
v -0.120178 -0.015806 -0.311904
v -0.180594 -0.015806 -0.242023
v -0.100386 -0.015806 -0.212074
v -0.120178 -0.015806 -0.022398
v -0.188928 -0.015806 0.037500
v -0.207678 -0.015806 0.017534
v 0.206906 -0.015806 0.037500
v 0.150656 -0.015806 -0.022398
v 0.172531 -0.015806 -0.232040
v 0.212114 -0.015806 -0.311904
v 0.218646 -0.015806 -0.310032
v 0.224701 -0.015806 -0.307744
v 0.230278 -0.015806 -0.305040
v 0.235378 -0.015806 -0.301921
v 0.240000 -0.015806 -0.298385
v 0.244145 -0.015806 -0.294433
v 0.247813 -0.015806 -0.290066
v 0.251003 -0.015806 -0.285282
v 0.253716 -0.015806 -0.280083
v 0.255951 -0.015806 -0.274467
v 0.257709 -0.015806 -0.268436
v 0.258989 -0.015806 -0.261989
v 0.229822 -0.015806 0.017534
v 0.136072 -0.015806 0.117364
v 0.204822 -0.015806 0.057466
v 0.223572 -0.015806 0.077432
v 0.194406 -0.015806 0.356955
v 0.191780 -0.015806 0.363402
v 0.188763 -0.015806 0.369434
v 0.185356 -0.015806 0.375049
v 0.181558 -0.015806 0.380249
v 0.177370 -0.015806 0.385032
v 0.172791 -0.015806 0.389400
v 0.167821 -0.015806 0.393351
v 0.162461 -0.015806 0.396887
v 0.156710 -0.015806 0.400007
v 0.150569 -0.015806 0.402710
v 0.144037 -0.015806 0.404998
v 0.137114 -0.015806 0.406870
v 0.114197 -0.015806 0.327006
v 0.093364 -0.015806 0.327006
v 0.116281 -0.015806 0.406870
v -0.196219 -0.015806 0.406870
v -0.202751 -0.015806 0.404998
v -0.208806 -0.015806 0.402710
v -0.214383 -0.015806 0.400007
v -0.219483 -0.015806 0.396887
v -0.224106 -0.015806 0.393351
v -0.228251 -0.015806 0.389400
v -0.231918 -0.015806 0.385032
v -0.235108 -0.015806 0.380249
v -0.237821 -0.015806 0.375049
v -0.240056 -0.015806 0.369434
v -0.241814 -0.015806 0.363402
v -0.243094 -0.015806 0.356955
v -0.156636 -0.015806 0.327006
v -0.123303 -0.015806 0.007551
v -0.123303 0.026194 0.007551
v 0.147531 -0.015806 0.007551
v 0.147531 0.026194 0.007551
v 0.185031 -0.015806 0.047483
v 0.185031 0.026194 0.047483
v 0.139197 -0.015806 0.087415
v 0.139197 0.026194 0.087415
v -0.131636 -0.015806 0.087415
v -0.131636 0.026194 0.087415
v -0.169136 -0.015806 0.047483
v -0.169136 0.026194 0.047483
v 0.136072 -0.015806 0.117364
v 0.136072 0.026194 0.117364
v 0.204822 -0.015806 0.057466
v 0.204822 0.026194 0.057466
v 0.223572 -0.015806 0.077432
v 0.223572 0.026194 0.077432
v 0.194406 -0.015806 0.356955
v 0.194406 0.026194 0.356955
v 0.191780 -0.015806 0.363402
v 0.191780 0.026194 0.363402
v 0.188763 -0.015806 0.369434
v 0.188763 0.026194 0.369434
v 0.185356 -0.015806 0.375049
v 0.185356 0.026194 0.375049
v 0.181558 -0.015806 0.380249
v 0.181558 0.026194 0.380249
v 0.177370 -0.015806 0.385032
v 0.177370 0.026194 0.385032
v 0.172791 -0.015806 0.389400
v 0.172791 0.026194 0.389400
v 0.167821 -0.015806 0.393351
v 0.167821 0.026194 0.393351
v 0.162461 -0.015806 0.396887
v 0.162461 0.026194 0.396887
v 0.156710 -0.015806 0.400007
v 0.156710 0.026194 0.400007
v 0.150569 -0.015806 0.402710
v 0.150569 0.026194 0.402710
v 0.144037 -0.015806 0.404998
v 0.144037 0.026194 0.404998
v 0.137114 -0.015806 0.406870
v 0.137114 0.026194 0.406870
v 0.114197 -0.015806 0.327006
v 0.114197 0.026194 0.327006
v 0.093364 -0.015806 0.327006
v 0.093364 0.026194 0.327006
v 0.116281 -0.015806 0.406870
v 0.116281 0.026194 0.406870
v -0.196219 -0.015806 0.406870
v -0.196219 0.026194 0.406870
v -0.202751 -0.015806 0.404998
v -0.202751 0.026194 0.404998
v -0.208806 -0.015806 0.402710
v -0.208806 0.026194 0.402710
v -0.214383 -0.015806 0.400007
v -0.214383 0.026194 0.400007
v -0.219483 -0.015806 0.396887
v -0.219483 0.026194 0.396887
v -0.224106 -0.015806 0.393351
v -0.224106 0.026194 0.393351
v -0.228251 -0.015806 0.389400
v -0.228251 0.026194 0.389400
v -0.231918 -0.015806 0.385032
v -0.231918 0.026194 0.385032
v -0.235108 -0.015806 0.380249
v -0.235108 0.026194 0.380249
v -0.237821 -0.015806 0.375049
v -0.237821 0.026194 0.375049
v -0.240056 -0.015806 0.369434
v -0.240056 0.026194 0.369434
v -0.241814 -0.015806 0.363402
v -0.241814 0.026194 0.363402
v -0.243094 -0.015806 0.356955
v -0.243094 0.026194 0.356955
v -0.156636 -0.015806 0.327006
v -0.156636 0.026194 0.327006
v 0.191281 -0.015806 -0.311904
v 0.191281 0.026194 -0.311904
v 0.151697 -0.015806 -0.232040
v 0.151697 0.026194 -0.232040
v -0.097261 -0.015806 -0.232040
v -0.097261 0.026194 -0.232040
v -0.177469 -0.015806 -0.261989
v -0.177469 0.026194 -0.261989
v -0.174843 -0.015806 -0.268436
v -0.174843 0.026194 -0.268436
v -0.171827 -0.015806 -0.274467
v -0.171827 0.026194 -0.274467
v -0.168420 -0.015806 -0.280083
v -0.168420 0.026194 -0.280083
v -0.164622 -0.015806 -0.285282
v -0.164622 0.026194 -0.285282
v -0.160434 -0.015806 -0.290066
v -0.160434 0.026194 -0.290066
v -0.155855 -0.015806 -0.294433
v -0.155855 0.026194 -0.294433
v -0.150885 -0.015806 -0.298385
v -0.150885 0.026194 -0.298385
v -0.145525 -0.015806 -0.301921
v -0.145525 0.026194 -0.301921
v -0.139774 -0.015806 -0.305040
v -0.139774 0.026194 -0.305040
v -0.133632 -0.015806 -0.307744
v -0.133632 0.026194 -0.307744
v -0.127100 -0.015806 -0.310032
v -0.127100 0.026194 -0.310032
v -0.120178 -0.015806 -0.311904
v -0.120178 0.026194 -0.311904
v -0.180594 -0.015806 -0.242023
v -0.180594 0.026194 -0.242023
v -0.100386 -0.015806 -0.212074
v -0.100386 0.026194 -0.212074
v -0.120178 -0.015806 -0.022398
v -0.120178 0.026194 -0.022398
v -0.188928 -0.015806 0.037500
v -0.188928 0.026194 0.037500
v -0.207678 -0.015806 0.017534
v -0.207678 0.026194 0.017534
v 0.206906 -0.015806 0.037500
v 0.206906 0.026194 0.037500
v 0.150656 -0.015806 -0.022398
v 0.150656 0.026194 -0.022398
v 0.172531 -0.015806 -0.232040
v 0.172531 0.026194 -0.232040
v 0.212114 -0.015806 -0.311904
v 0.212114 0.026194 -0.311904
v 0.218646 -0.015806 -0.310032
v 0.218646 0.026194 -0.310032
v 0.224701 -0.015806 -0.307744
v 0.224701 0.026194 -0.307744
v 0.230278 -0.015806 -0.305040
v 0.230278 0.026194 -0.305040
v 0.235378 -0.015806 -0.301921
v 0.235378 0.026194 -0.301921
v 0.240000 -0.015806 -0.298385
v 0.240000 0.026194 -0.298385
v 0.244145 -0.015806 -0.294433
v 0.244145 0.026194 -0.294433
v 0.247813 -0.015806 -0.290066
v 0.247813 0.026194 -0.290066
v 0.251003 -0.015806 -0.285282
v 0.251003 0.026194 -0.285282
v 0.253716 -0.015806 -0.280083
v 0.253716 0.026194 -0.280083
v 0.255951 -0.015806 -0.274467
v 0.255951 0.026194 -0.274467
v 0.257709 -0.015806 -0.268436
v 0.257709 0.026194 -0.268436
v 0.258989 -0.015806 -0.261989
v 0.258989 0.026194 -0.261989
v 0.229822 -0.015806 0.017534
v 0.229822 0.026194 0.017534
vn 0.000000 1.000000 0.000000
vn 0.000000 -1.000000 0.000000
vn -0.350700 0.000000 -0.936500
vn 0.397100 0.000000 -0.917800
vn 0.998700 0.000000 0.050000
vn 0.350700 0.000000 0.936500
vn -0.397100 0.000000 0.917800
vn -0.998700 0.000000 -0.050000
vn -0.887400 0.000000 -0.460900
vn 0.050000 0.000000 -0.998700
vn 0.947600 0.000000 -0.319300
vn 0.970000 0.000000 0.242900
vn 0.910900 0.000000 0.412600
vn 0.875400 0.000000 0.483400
vn 0.832000 0.000000 0.554800
vn 0.780700 0.000000 0.624900
vn 0.722000 0.000000 0.691900
vn 0.657000 0.000000 0.753900
vn 0.587100 0.000000 0.809500
vn 0.514200 0.000000 0.857700
vn 0.440200 0.000000 0.897900
vn 0.367000 0.000000 0.930200
vn 0.296000 0.000000 0.955200
vn -0.491400 0.000000 0.871000
vn -0.996200 0.000000 0.087600
vn 0.601700 0.000000 -0.798700
vn 0.798700 0.000000 0.601700
vn -0.139100 0.000000 0.990300
vn -0.314700 0.000000 0.949200
vn -0.395200 0.000000 0.918600
vn -0.479600 0.000000 0.877500
vn -0.565500 0.000000 0.824800
vn -0.649700 0.000000 0.760200
vn -0.729000 0.000000 0.684500
vn -0.800100 0.000000 0.599900
vn -0.860500 0.000000 0.509400
vn -0.909000 0.000000 0.416700
vn -0.945700 0.000000 0.325200
vn -0.971400 0.000000 0.237500
vn -0.867500 0.000000 -0.497400
vn -0.166000 0.000000 -0.986100
vn 0.849700 0.000000 -0.527200
vn 0.527200 0.000000 0.849700
vn -0.177700 0.000000 0.984100
vn -0.915800 0.000000 0.401700
vn -0.910900 0.000000 -0.412600
vn -0.875400 0.000000 -0.483400
vn -0.832000 0.000000 -0.554800
vn -0.780700 0.000000 -0.624900
vn -0.722000 0.000000 -0.691900
vn -0.657000 0.000000 -0.753900
vn -0.587100 0.000000 -0.809500
vn -0.514200 0.000000 -0.857700
vn -0.440300 0.000000 -0.897900
vn -0.367000 0.000000 -0.930200
vn -0.296000 0.000000 -0.955200
vn -0.131700 0.000000 -0.991300
vn -0.526700 0.000000 -0.850000
vn 0.850000 0.000000 -0.526700
vn 0.887400 0.000000 0.460900
vn -0.050000 0.000000 0.998700
vn -0.947600 0.000000 0.319300
vn -0.960500 0.000000 -0.278300
vn -0.403900 0.000000 -0.914800
vn 0.314700 0.000000 -0.949200
vn 0.395200 0.000000 -0.918600
vn 0.479600 0.000000 -0.877500
vn 0.565400 0.000000 -0.824800
vn 0.649700 0.000000 -0.760200
vn 0.729000 0.000000 -0.684500
vn 0.800100 0.000000 -0.599900
vn 0.860500 0.000000 -0.509400
vn 0.909000 0.000000 -0.416700
vn 0.945700 0.000000 -0.325200
vn 0.971400 0.000000 -0.237500
vn 0.998900 0.000000 -0.046000
f 45//1 47//1 46//1
f 45//1 48//1 47//1
f 61//1 48//1 45//1
f 76//1 62//1 77//1
f 76//1 63//1 62//1
f 60//1 48//1 61//1
f 75//1 63//1 76//1
f 60//1 49//1 48//1
f 60//1 50//1 49//1
f 74//1 63//1 75//1
f 60//1 51//1 50//1
f 73//1 63//1 74//1
f 60//1 52//1 51//1
f 72//1 63//1 73//1
f 71//1 63//1 72//1
f 60//1 53//1 52//1
f 70//1 63//1 71//1
f 60//1 54//1 53//1
f 69//1 63//1 70//1
f 60//1 55//1 54//1
f 68//1 63//1 69//1
f 60//1 56//1 55//1
f 67//1 63//1 68//1
f 60//1 57//1 56//1
f 66//1 63//1 67//1
f 60//1 58//1 57//1
f 65//1 63//1 66//1
f 60//1 59//1 58//1
f 64//1 63//1 65//1
f 21//1 7//1 22//1
f 21//1 8//1 7//1
f 30//1 32//1 31//1
f 20//1 8//1 21//1
f 30//1 33//1 32//1
f 19//1 8//1 20//1
f 30//1 34//1 33//1
f 18//1 8//1 19//1
f 30//1 35//1 34//1
f 17//1 8//1 18//1
f 30//1 36//1 35//1
f 16//1 8//1 17//1
f 30//1 37//1 36//1
f 15//1 8//1 16//1
f 30//1 38//1 37//1
f 14//1 8//1 15//1
f 30//1 39//1 38//1
f 13//1 8//1 14//1
f 30//1 40//1 39//1
f 12//1 8//1 13//1
f 30//1 41//1 40//1
f 11//1 8//1 12//1
f 30//1 42//1 41//1
f 10//1 8//1 11//1
f 30//1 43//1 42//1
f 9//1 8//1 10//1
f 30//1 44//1 43//1
f 27//1 24//1 23//1
f 29//1 44//1 30//1
f 27//1 25//1 24//1
f 27//1 26//1 25//1
f 28//1 44//1 29//1
f 6//1 2//1 1//1
f 6//1 3//1 2//1
f 5//1 3//1 6//1
f 5//1 4//1 3//1
f 124//2 122//2 123//2
f 125//2 122//2 124//2
f 125//2 138//2 122//2
f 139//2 153//2 154//2
f 140//2 153//2 139//2
f 125//2 137//2 138//2
f 140//2 152//2 153//2
f 126//2 137//2 125//2
f 127//2 137//2 126//2
f 140//2 151//2 152//2
f 128//2 137//2 127//2
f 140//2 150//2 151//2
f 129//2 137//2 128//2
f 140//2 149//2 150//2
f 140//2 148//2 149//2
f 130//2 137//2 129//2
f 140//2 147//2 148//2
f 131//2 137//2 130//2
f 140//2 146//2 147//2
f 132//2 137//2 131//2
f 140//2 145//2 146//2
f 133//2 137//2 132//2
f 140//2 144//2 145//2
f 134//2 137//2 133//2
f 140//2 143//2 144//2
f 135//2 137//2 134//2
f 140//2 142//2 143//2
f 136//2 137//2 135//2
f 140//2 141//2 142//2
f 84//2 98//2 99//2
f 85//2 98//2 84//2
f 109//2 107//2 108//2
f 85//2 97//2 98//2
f 110//2 107//2 109//2
f 85//2 96//2 97//2
f 111//2 107//2 110//2
f 85//2 95//2 96//2
f 112//2 107//2 111//2
f 85//2 94//2 95//2
f 113//2 107//2 112//2
f 85//2 93//2 94//2
f 114//2 107//2 113//2
f 85//2 92//2 93//2
f 115//2 107//2 114//2
f 85//2 91//2 92//2
f 116//2 107//2 115//2
f 85//2 90//2 91//2
f 117//2 107//2 116//2
f 85//2 89//2 90//2
f 118//2 107//2 117//2
f 85//2 88//2 89//2
f 119//2 107//2 118//2
f 85//2 87//2 88//2
f 120//2 107//2 119//2
f 85//2 86//2 87//2
f 121//2 107//2 120//2
f 101//2 104//2 100//2
f 121//2 106//2 107//2
f 102//2 104//2 101//2
f 103//2 104//2 102//2
f 121//2 105//2 106//2
f 79//2 83//2 78//2
f 80//2 83//2 79//2
f 80//2 82//2 83//2
f 81//2 82//2 80//2
f 156//3 158//4 157//4 155//3
f 158//4 160//5 159//5 157//4
f 160//5 162//6 161//6 159//5
f 162//6 164//7 163//7 161//6
f 164//7 166//8 165//8 163//7
f 166//8 156//3 155//3 165//8
f 168//9 170//10 169//10 167//9
f 170//10 172//11 171//11 169//10
f 172//11 174//12 173//12 171//11
f 174//12 176//13 175//13 173//12
f 176//13 178//14 177//14 175//13
f 178//14 180//15 179//15 177//14
f 180//15 182//16 181//16 179//15
f 182//16 184//17 183//17 181//16
f 184//17 186//18 185//18 183//17
f 186//18 188//19 187//19 185//18
f 188//19 190//20 189//20 187//19
f 190//20 192//21 191//21 189//20
f 192//21 194//22 193//22 191//21
f 194//22 196//23 195//23 193//22
f 196//23 198//24 197//24 195//23
f 198//24 200//25 199//25 197//24
f 200//25 168//9 167//9 199//25
f 202//26 204//27 203//27 201//26
f 204//27 206//28 205//28 203//27
f 206//28 208//29 207//29 205//28
f 208//29 210//30 209//30 207//29
f 210//30 212//31 211//31 209//30
f 212//31 214//32 213//32 211//31
f 214//32 216//33 215//33 213//32
f 216//33 218//34 217//34 215//33
f 218//34 220//35 219//35 217//34
f 220//35 222//36 221//36 219//35
f 222//36 224//37 223//37 221//36
f 224//37 226//38 225//38 223//37
f 226//38 228//39 227//39 225//38
f 228//39 230//40 229//40 227//39
f 230//40 232//41 231//41 229//40
f 232//41 202//26 201//26 231//41
f 234//42 236//43 235//43 233//42
f 236//43 238//44 237//44 235//43
f 238//44 240//45 239//45 237//44
f 240//45 242//46 241//46 239//45
f 242//46 244//47 243//47 241//46
f 244//47 246//48 245//48 243//47
f 246//48 248//49 247//49 245//48
f 248//49 250//50 249//50 247//49
f 250//50 252//51 251//51 249//50
f 252//51 254//52 253//52 251//51
f 254//52 256//53 255//53 253//52
f 256//53 258//54 257//54 255//53
f 258//54 260//55 259//55 257//54
f 260//55 262//56 261//56 259//55
f 262//56 264//57 263//57 261//56
f 264//57 234//42 233//42 263//57
f 266//58 268//59 267//59 265//58
f 268//59 270//60 269//60 267//59
f 270//60 272//61 271//61 269//60
f 272//61 274//62 273//62 271//61
f 274//62 266//58 265//58 273//62
f 276//61 278//62 277//62 275//61
f 278//62 280//63 279//63 277//62
f 280//63 282//64 281//64 279//63
f 282//64 284//65 283//65 281//64
f 284//65 286//66 285//66 283//65
f 286//66 288//67 287//67 285//66
f 288//67 290//68 289//68 287//67
f 290//68 292//69 291//69 289//68
f 292//69 294//70 293//70 291//69
f 294//70 296//71 295//71 293//70
f 296//71 298//72 297//72 295//71
f 298//72 300//73 299//73 297//72
f 300//73 302//74 301//74 299//73
f 302//74 304//75 303//75 301//74
f 304//75 306//76 305//76 303//75
f 306//76 308//60 307//60 305//76
f 308//60 276//61 275//61 307//60
